<mxfile host="app.diagrams.net" agent="Mozilla/5.0 (Macintosh; Intel Mac OS X 10_15_7) AppleWebKit/537.36 (KHTML, like Gecko) Chrome/131.0.0.0 Safari/537.36 Edg/131.0.0.0" version="26.0.2">
  <diagram name="Page-1" id="P-X-QW99_OouEvq_B-A6">
    <mxGraphModel dx="943" dy="1108" grid="1" gridSize="10" guides="1" tooltips="1" connect="1" arrows="1" fold="1" page="1" pageScale="1" pageWidth="827" pageHeight="1169" math="0" shadow="0">
      <root>
        <mxCell id="0" />
        <mxCell id="1" parent="0" />
        <mxCell id="qPDrxui3yycS4Ta56Oi9-1" value="" style="verticalLabelPosition=bottom;html=1;verticalAlign=top;align=center;strokeColor=none;fillColor=#00BEF2;shape=mxgraph.azure.git_repository;" vertex="1" parent="1">
          <mxGeometry x="647" y="335" width="56" height="56" as="geometry" />
        </mxCell>
        <mxCell id="qPDrxui3yycS4Ta56Oi9-2" value="" style="image;sketch=0;aspect=fixed;html=1;points=[];align=center;fontSize=12;image=img/lib/mscae/Person.svg;" vertex="1" parent="1">
          <mxGeometry x="90" y="235" width="41.44" height="56" as="geometry" />
        </mxCell>
        <mxCell id="qPDrxui3yycS4Ta56Oi9-3" value="" style="shape=image;verticalLabelPosition=bottom;labelBackgroundColor=default;verticalAlign=top;aspect=fixed;imageAspect=0;image=data:image/png,iVBORw0KGgoAAAANSUhEUgAAAgAAAAIACAMAAADDpiTIAAADAFBMVEVMaXEeiP8fiP8Ziv8gh/8eif8eif8gif8gh/8VpP8djP8XiP8ah/8eiP8Ai/8kkP8gh/9MaXEgh/8eiP8ggf8biP8eh/8eiP8eiP8fif8fh/8giP8fif8fh/8giP8fiP8eh/8eh/8giP8eiP8eh/8eh/8fiP8gif8giP8gif8giP8eiP8fiP8fif8giP8iif8eif8dh/8eiP8eiP8fif8cj/8eiP8fiP8giP8eh/8eiP8fiP8eif8eif8eh/8fiP8giP8giP8eiP8eh/8ciP8fh/8Ugf8eiP8eh/8eiP8cif8gif8eif8eh/8gif8eiP8eif8eiP8eh/8eif8eiP8cj/8eh/8Sgf8eh/8eiP8eif8gif8gj/8gif8eif8eiP8eif8ei/8ah/8eif8eiP8eif8eiP8eif8giP8gif8gif8cif8Uif98vf8eh/8diP8gh/8eif8gif8fiP8gif8gh/8eif8eif8eiP8eif94uP8eh/8ci/8gh/8eh/8eh/8gif8eif8cif8gi/95uv8gh/8ah/8eh/8eh/8gif8giP8gif8chf8gh/96uv8eh/94uP94uP94uP8eh/8eh/8eif8gh/8eif94uP8eif8gh/8gh/8gh/8ci/94uf93xP96uv94uP8eh/94uf8eif8chf8gif8ch/8gif94uP8gif8gh/8gh/93uf94t/95u/94u/90u/8eh/8gif94uf94uf94uf93uf8eh/94uP8eh/8gif8gif94uf8eif94uP8gif8eh/8eif94uf8eif94uf8gif94uf94uP94uf93uf94uf94uP8ch/94uP94t/94uP94uP8eh/93uf94uP93u/8gi/8eh/94uf94uf94uf94vf94uP94uf94uf95uf8gif8gif94t/8eh/94uf94t/94uf94t/93uP8eif94uf94uf94uf94t/92t/95uP94uf94uf8gh/94uP+B1f96vf93uP95uP92uf96uf94uf90tf9mzf8gif94uf8eif/0vNazAAAA/XRSTlMAUhgUQFb9qasCHgocKgQFqQD3aggWLjpLXpbZ3LHRt/P9ua1U74+wYPOZfCi/cA4yT5JyvAhiw4m8NkiWnvWzoMlC+zTkDGTVpizv7RDgjfecx4TNEoQO7aPVzxBY5XfrIBLFXMta9cHn8RoMC91GWKvHZunh435BRP3FIus4evnfPjAw8SZubKFoJiyRD3Ry8Pfb51TLterX+el2JMAIH+YiK2wagSSH8/uB12DfGSgUMDiDVUdNSqTPblDhPKp+h4ucetand4+xP2W5PLzMxom1OXsjPos1bK0SUe2fW054lJvPmZfZHHRo2375JkK1ySDUBhY8WW5EfBgEXagLGgAAAAlwSFlzAAALEwAACxMBAJqcGAAAIABJREFUeNrtfQlMVcf+/wA26WURHquAAheNGkBQECgQUYtSjEGiVQE1blGDGhEliFxcEhU31IoLMUCsS4w2VNtnN419GtL8avtqq10MrbVWbX02rXZ51tfX9++5+Qc37vKdc+acMzPnHJzPz9efr+/eme+d7+fMmfmuCDFE5nqftuditvRPrIjruzBBCp09Ydqk4YPKk0pqo6MikEBPxtCs9IpWSQ4J87ek9ioVK9XjEHB206jpEikq+6/NE5tBj0HmsJgiST1m9s/yE4tneSwO+0zSjvrkILGEFkZaVo5d0om4tsViIa2JdwdJdFBRHS5W02rwu1Ej0UNZySGxpFZCVLlEGzk+YlktgvCsyRILTGibIRbX/CieWiYxQ9K/xQKb/OlvGy+xREtJsVhk88I2eIXEGotmiSuBWbGuSOKBmnk2sdYmxMZ4iRem54rlNhvSYiSeWBYoltxUqGqV+CLhjHgPmAdHEiX+mL9NLLxJsDVfMgS1YulN8fbvJxmFbHESMB4fL5SMw6JhQgEGo12b5voOf3ZiSW1q9Lu9+iwIu/FcUkh8c6g247BQgZEIUH33X10/Yta7Kb2hwQLrwrbH16iNIFku4saMw6FYVbqqHBGt7MwpPPXc6AI1o+4ZKhRhEJY2qNjzk+b5km8seR2TVFBgnlCFIUglflCLao+qv1xk5RCPf0wYhfjDNoI0jqNjvcYpIjbXE54IPssUCuF9+68gC+ZLj9I1jf+saWTuIV+hEq6YEkeilrEZAfqnOpVN5CMWNiGe8CU5/sdmBdOZ7Y2RBG+CmUeFWrjh3wQh3/P3UjyZBZUrHwhXRwrFcMJGZd9vaxXlOVOUzxwNwiDAB4F7lFRRUFJIf9oFik6H1Y1CORzgV6mY0pnCZOLS7UrvgZniJMgepUqRn63sDHORo5WMzeI2yBqZ8xV0EJPGcvoshayTojShIqawKbj/ZtexvoAuV4gRCRZKYgmFpM9s9oVdbFPljQL9hJIYotYMQXp18rfQEqEmZlgqf/qL4iRGhLxx+F2hKEZYLJv4mTiX30kkWe5C2OAvVMVm2ZtlT/9cZcmTiyCcLg6CTHBMZs3tbZyFGSp3H9wulMUAvWRO3y17uYtzSM4hlSfURf/ktRq/3vnrDBDITyZUZPwRoTDaBwCZk3erMY7YQhkH4WgRJUgZMgkgZauMEmokXqgOoTK6Zy78AaDBuECMTBnnkAgOoAq8C7BljYFipeFD0+LES4AiNuHvf30MFcx3JlayDKE2ejeABOwyRxss2kasdTJfdByghhCs/ttJh8hNbW9P7cOg+PsafB0hoThKqMOucX8y5bclPtlCZibSDhddgJWuTqiOCnpjgwAnEMR+2gZ7muxq2uiG7WBz1Cp7C+XRQDL2ESMo19fnVej1nE6z4Gv4qzj51grlUUAg1vGWqvjdUtzpYfUCihIG4YpUhYooYQqYiNP/SMWvRspEkCdS9Npn4SaZKNSnG3Nwi7tCsXq/j2zZn9Ab9IQch5tExIboxiicBWiM0jevK+VxxFEz12ZOEDWkeG8ALyp98yRBAvH2AEpinhRbAOcTQI3SF9MqCQggjT1FSc4YU0Sq9TxEFGgNvR1JWvebjsU2DWMSDhUdRnRhKkZt8UpfjCav9hnG9CaQLJSox8aCCb1smaPwRZuaroHLqWQTY2KWW0WIsA6EafUBDVBX7rOdgqxDMWNnCTVqR1/MCVCxb1OOyoKvsRTCSpPgoacJNWpGndYggED1VZ8n6vYQRWBGfkMoUiuexWwAitFWWzXU/dZfVigdHniUUCTlR2qr4jdDNJV+j9fpu8HsO6Gi46xGrMUUgVA+V2tsIJiQqi+SExMZcEaoUhsqNUdbam4B0rxej8CNmJKFQpWasB6TdhXOkABSQaeeus+YV48IC6BpBSQJs4EzSMgoUKMjlG8bPGSbUKYWwMa8hDStBFiwlrAt0DjtXWDgDmbNQpn0LGvfIa0EGIDmDCFjQJlm691S8Q5g/QZYp5kAzyCE5s0mo0DFHG1C21o1Ri8KeGEyHAiGdBEAFY8iY0BosjYnzkBwtByhTtWYi2nPo5MACJ0lbDVWpKlH/Bj4bhEgFKoWGP96im4CoOD2FiIG2DVVnd0NjiU6jKpGfziOE+knAEJHyRoOSTN91MtdK4JD6QC+tb9EhQDKRZ+f5B6oLv+9CnY3C4WqRBC8K0dQIgDyG0fGgIbNat0DcDXpuUKl6lCty6quTACEehFGjc3fpk5y2IV1XahUHeDbWidFAqDMY2StQVs6VLkHonTcXgSeAL6r9aFJAIS2zSfbBCp7qbEFgQbnCqFSVZgCa6JUDwEGAB8MSyCjwCgV4f2JYMEYoVNVWAmqYTKiuwN0VXlaRsaA2eSdiOB6BqKjmCqk6uvFQE4AhE6tIKPAENI0v7Pg132EUtVghD57mhoCoIASssNgfhvZjRA+BLQLpaoBmGZjD2BCAIQip5NtAqMXE80OJiUMEkpVA/AhqkS6CDBA7pWTTxYosJJk9ueELVAv4ADrRMRoB0AIHSHLJi4gqS0EGrEKhFZV4GNw9dMZEgChZxYSUWCz8uzrRKkIvYCTuzcxJQBKS7eTOImVwwQWaw9lEngIuDvAUnZngIfIJUkoWaEcJZBgxqrGlsIWcOkPsSYAQrMIAoeV30TgpaJWqJUciTqPUZpeAQ/gn6j8ElDsULFMVAvSCTAg9FUeBECoqlUxSkRpiA7oWyFCreQAXfVD+BAApSUpHAbtSmH+Z6BvDRdqJQd4iurHiQAInX1VngFTtVxipgu16lRgOTcCoOBk2cNgkcLXfTRVNhRQUGCMzu8PUCNBo2wWmcJ9BCxtkyDUqlOBnfx2gAf7uEyr0sHyX4XbyGQKvepTYDJfAiC/LVgCKAQmRIJf8hV61afAVM4EQGglrt7wZwrGBPBLQUKv+hSYxZ0AKPNFOItskvzX5gpnAAsCVOn8/gAtkqTUa7kGiPxAnSjQ6U2htQMgtFELATJFVKBOgLfwMP4ECD8GvwLq5b8GFzg8JfRKjAadpZYovQLycNljCkZJuM2J6CNJjjKdcbVUdgDfZ+leAz8WeiXGTF1ZAXQIkCqTNKSQJQKnB+YKvRKjSGeRBf2vgNw4OVPwv+W/vFTYAXQCPHqP47cDlMqHByrdAvcKS6BOjGThDibfAQYoBAgrtayDY1qFWslRrrPmsq4dwF+p3Yj9iMIIN8Aax0Kt5Bio05+qZweoVQwKVMzyGiFSg3TiJXDhIzgQYB1BFUHFjrPZ0LeyhVrJUaXzIq31FTB3C0FigPJtZLbOgCaBj3W6AzUSoHoRgf7HKnaAmSGJ/HCdgG2pHWwJkDKaqH5olLINQUsUkYCyBvuzPAOEd5DVCCDwSCwQ4QBsTIFFDAlwirBqIElYUrvoGaAbsB8mnBUBFvcnLCJPFNQBDtYglKoGcLeIlboIgD0D2FIJi8XVkJnzyzSEEAiQ3APbmewA8n4fF0wk6wC5TW9WgwCuVnQFgx2gNMZOpv6+awgn3yzpjGcSQMgGFm0qsFEnQNVCwrc/eQsZ+PxyVihVFZbrukqREsCfsHOElKOiwg94BLCLvCB1iJH0VNkgI0BwLWEjwT1qGovDRwCRG6wSsEs9Rw8BPA+BKwm7R0kxpWok36yzwpnAA8DG4JYZ1HaAueWE6o87qU5yuMbMAqFSlQDjQqVqSgSwVRM2DWpQ21E+Ai48PEdoVCVgx+wQHQRweQUE1RM+/u+rDuQ7A9eWEwpVi8GwRhZTIEBAJ6H6a/JoXV9E2zjV8IV1kqH/FbB0Jpn6W46Fqxf7CDzWu0KhqgH385mslwCLBxE+/vUbtUgNtwspEFYAWksprdJFAFsGod9ntcYO8pW6rq8CLoAT7MgcQrgzwBtFhI//xLlUhd4k1EntYarRToDSGEL1x2qO3knXc3QVcAcmRitaKwG2tBLq/4Zmkf3gxiMiIlwTcjGPJ8FX8yXtyNHR2eFF7XFkAt6o0XylatWs/pkDdAgcAJ8w7RFClzTfAQQ5gpO16n9gqR6B4YQmNVWuBVzRiNGSciffcdrUHxepS97g2ZLe8mYCbsiGFzRe8YsZWtSfcEanuNUYk4JQpFZg/AHKtTaCNOg/RG8BBxvmzNIpFKkVmRiznXLvhVi16q/UX8MrDDP0UaFIzcC57RSP6rPUqb9larhuWeeO1/rCEsBiMS5DV6mLsJ8qS0BFCgVZR2EGF+UB9QAXt6X4Xl1Lrv7ZVPJ210ja7VYCWETitKb4zBKfAsqnUJEUl14kssL1Aee9V0wSiiJTf1EUHTlTMeO3ChXqw3qNxTpxSdruyL/Rm46YEQ2ScATz3QIWKebbK/cAjaeWs/8ZZgYRDMpuC1B8CWQq5H3tGUBNSKzlMUsoUDfexy2uUvtGFBwio/6CgYXURBxTgDMv2YT+dGMOVofKN+yt2O/OX09PwhnY8jKiSQgNbMcGbipb7yObYb8P1Wx9bJyxqApCBX64EzZRP+Z5k7zV3zGFpnxnsNvMGKE8tkcsaS2RMWmgW/3H6WfSqEp3Em9iEqqjBLxVj7AV25pZ3yXG5jfEDtleTbttwxHsASD/iNAcJdTh3XhRBouWFqurpKAAGUZiV3lRiqGChePTjEcLtdHDYnxC10wjO7HY+uHtDClCbRRRLZPGk2acWBPxYoni4HSRjV/q0Yal3sr4m+KEDZAu/GWyerNnGCPTVBlLs3gB0MYwmdV+1YhzgG2izqLiAuqwXa6Wyyru4gTHywUZCnUxQLPMipfx7suaJudrLhO9AVggUK6yWz7f4NuIaXJdZUSbaDb4WK6udwHPDLxDK3R2lRHQBNmUP3tnb15ynJLtLjZSKIoZ3pev68XJ+zJQPsU4QOiJ3dG7WXbty/I4yBAoL8NMUQ2CJfz2yDf162BugKuTby45fqNQElNEKiT91fuznV+hymzoGqEi1k9ggUKux9pgdpM/Xyk/eUEfoSDm8FFq8tR3Kau3fz+Fme2iGAwPRCtm/AxiYYnLrFVMOa8WyuGCMOWkv1rqk+ZVKk66VqjGPAyY2VZKcUKbD0GHCeEB5AeSKmANnbQq9GZWExQbsG8VauGINqLk/y00YsCLa4naC0ULpXDFYLL6D/F6s/PGpJP1FhRZgLyRR9j0sSxpnWbroH/yq2ST5K8TCuGONbNJqwDt6dASoTdl83LSCcpOCnUYgMXzySuBxcZcV+WkW9OeraLI5CqhDEMQXC6pQMuQG+uJXga+WSFlagYeWSpUYRS2qiwIW1Z+Zqmct6g0anBnnMoxRRkoIzG0RkNZ6MkhL85blxvZ6O87IxyhtIjAxm1jzvaZNSJ7tfqxJgwVSjAUxfGSkRind/uP3Htj1JD50yr3LJKk/LIVsXGT4ks2L7VOp2FX+cv6zk8MSTp2pg/frJjNxqk/QY/1J21pbSJ+/yoKCTP51UJW/hVDJr7ELVL/6CSD9D9a84M6ZUEMwVEjIbHdpJWmyeQPjV97lo88bUaoP1Sr8ydgnorX1up008UYqZJfSpzHQ6aN/DeBIdpiz3r3GZegcqa+7SZqOaFB/tYOfw6CZfBVf5m2IuCBU7U1tMteYA71a5V/OIdQKf8Qfuq3T9SSkG7L61egecrWDsPzDXXJP/alQuYCrovjpP9YTZWpUit1Tjso11D965W/oYN9Ev/gCRzUv3CzFtEG9KVhdTBuF6Ai/0Tmh5neg/syVn/NVi1R55GUDqmhU43JO6Mlvz2JfTGX6N0M1V/5ghaRfLfQk6DVgMhjmvLPZt9Cx1Y1jZH6i+ZpCS2xVS+iKsVyzpdC2vLXczAU++QwUH/zu5pk2ZhNXZJknvpnIH9nOHuxG7fTpW3oKG39BYKTQ1lsRdxckGzkj+WRQRtQPZ2awNNSNZ5d/FndTDmVoWQmP5+TzBvlDRRkrcjQHPG1ZrXECoN4XAcYyh/CKYzqbIeufaAhZJ6OQrSDJYaYvJj54jGVv5LbaywiWl2IX/ebduDzuiYuYWuRaGVtGGQsv8QzlT434311hsy4Eh+dbWUy2Ycq7WW5ZBzk55xMX0x4N4wbtemsfsdFab3EHgyNKlzkf4EvAxTcha1x8emb8ihdUKZM5uKWYpaQykn+VBMQIK5XF07S9VRFFKkJ+IgvWXtm8IC8XterqjNqR2SrcbkzqknJTf4XjSdAAovrM6k/oijdp9H764W5YctIV3Eqsrb8yca/AugfpouJXJINSXuLZQYJCiM7s8xC1pZ/q+EEyKBuPiVIKg191kfZreybSvAmtvtYXP69RhNgEO15lin+6BVhpOallCRlXayxtvxSncEEyKfsm3pO8cU5WE1V64gOJXt2mb+15U9YbywBKNsjXlAy4Km+vE9JV3KuFVtbfl79NXAEoPoOGCMfOBvaocWJ0zhcfgWHW1z+0TZDCdBCMWA5bazsL12mdbc+FcvHHGCQ/B3GWgLD6M0ha0AvO6XjaC7bpKAg19ry2583lAB9qU2xSTaYT5+1sU7Op7mi0Nryz44wkgDULiKRLTIkf1Hvi85XLjqvv8Xlz7YZSYB+lGaQe9G9S2F8ufDsaIvLn2okASg1epVpJRxKZ5ORuVCV+Vlb/gRfIwlA5Sa4EX+DaqB1SJPR0SiLy19uJAEkGgFq+BCK1duo/YhU/G9YY3H5o4wkQLb+4bPwz08QxV+BX8HY3taW/1WbgQTQX+x5Shknbw2+bdVai8u/yUgCLEzTOfoxbtGv2PqoCcXWlr8hzUAC6D2DpCVwi321Yc11tRaXP9lIAkj6rJHY4+1A+j8kE1cHY3yAteUvCzeSAK16LqIBuAcojkVHa6zF7obF5c8wkgDSZB2/NRkzZj6bCmm4o/TscGvL3xpsJAGkJO0bQBnn5JeRdA2qppE/zFACaE9azmLpooEQgYmz2m1x+WuMJYDmCFtMHG0ou1gnnON2ncXlv24oAaQCbT6PRhaWGYW7VBxFj4CJ5H/WWAJI+ZoM0iWsA00ARGF+QKG15ZdmGEsAKV+L3Ws1oziTo9Xpg0bGhMGm+FH0zjFmkn+rwQSQ7OojK/bCIw3Re1t+EkEzHdqXFsPe20nI2vLPN5oAGt58mFSaPH3iutnm0skfIfUHN3PJn2I4AaQQlRZV+EoTR/WmXOH9iRRae6i55J9qPAGkWFXFOOvgQXSV+A/2cphsJ7WmxKudy2TyN5uAAFKCmuIlcMR7K21LWRSp5tR6hMwmf6kJCCBJk8gzFivpe9GgZ6Pe+2NjqfjvrS4/GwJIUtJcsmFT6EcZ9gNH9K5X2UnDpWE6+UtMQgBpPJlzMgw+RlBfPyBiKhL8XKW62Uwn/2SzEECSdpNkQyRRDm4JxgXMxHh/djeFl6jp5LcXm4YAkhRXnak0LBxNHUn7+QFdcx0ULvDmk3+YiQggSQ3pkRpu0bPprx8UtVhH4ek1n/y1piJAV+ptkg/exTKHqiPdhl8/6HCUWaA71dGE8r9vNgJ0+Yknp8+Dq8YPAz+/mf76Sc+Q7t+qrvAmlH86TwJ8pqIjSkP9iLY+uUGBbuHra8GPasylGSTnp4ROI1PBj6oJbzWh/Pk8CRASzKIqdij95we2zPhITGCw/P48CSCTqaIdcdSfHykffKyD2BDAYPnr+BIAxVBfwBBQgFMDs/dINcPbx2hYP9zdjg0BDJZ/M2cCoBdpLyBUBPtsd/OafnNUr1+VKkO+xeU/xpsAqCqf7gJ6RxXZau2ux8nr6t6fBdhw5UQmBDBY/iTuBEApdJ+kOkWb11Y664cLq7G2/CH8CYBK+9FcwFzl27Z7Dkx/TfsnQmg7EwIYLH+8AQRA6KUCegvoeY0Onun9mcEUnh+cIcDi8o82hABo3WxqC+gZmJkBfShL5/npAWYxIYDB8scaQwA0d6Kd0gLOILF42hfofn5w3nyLy99qEAEQiiqis4AeMwdgPvZwBZ/V/vwgNI8JAQyWP9QwAiBbKo12w5JHmn6jzNOh6/lh1d7VYPnzjSMAQr7LKCygR9fRN7Af9NH3/LB6BRgs/0IjCYDQ0Pd1L6CHNyMS/0l5Z+Qzij+qjQkBDJY/1lgCIHQoKZTqNcpX2ygFBOUKuFwDecs/2WgCkLQ6UmVIWchq/dBALoYgzvJXGE8AhDKfGal9AT3DGju1DEJUn+d9JgQwWP5+ZiBAVwfNrByNhgHPjAL/AjbPD0JsmjwbLP84kxCgq4Bmn04tfdS9QuBj2Dw/CCUwIYDB8g80DwG6EL6yPbFV3a/3qq2QWc9m/SKY6N9o+cPMRYAHmLIyNSl7POnP9652ltasav2eIRTrYzYEMFj+OhMS4LHXOMK/MfKNdb26MRH8Cd5NsNLmM1g/TMnNBb3IYUb5A81LAG/Aca1AS2zyZ6iAvFwh6IdrsVlbfkauAEYEWAWuAVQTJ6CZ+vqhMt3udBPKP91SBEBgOCEYV022ggV7yeeGbbRJFpc/xFoEqCBxpzxEYTa987OMK6ja4vLXWosAcC88uNpgeD3N/RMXE5xrcfmXWosAcKXtHKRpBdWtnx9oqLT3trb8BcHWIsAhcCXsEVpWUM37Exeqp7ZWqOnkz0bWIgCm424bzq44hNbzgxBccTvZ4vK3W40AcK3tItzHg4dQen5wkVrrLS5/L6sR4HmVvwO3gmqfH4yHZo/F5Q+1WY0ANtgjh09vCU6k8fyguS0UrADmk384shoBcNW28VU2eidSeH7Qc/C0fSwu/2brEaBKUm3QGqndf/IYM+AHd1G4teWHTVDmJkAm7Ca2y1Q68XyG1D8/mOI+UDlGS8nPsGkQMwLg4mWWyb143cLsWtV7wOdiolaHWlz+PlYkwEnMvUi2HfHS7vv3KA1da0fAU8ZZXP5WZEUCYCwaSgkOVTldH2qI0VKWFZess9ni8ndakwCbMT9nltIXU97QGP0yHTPjDIvLH2RNAhSHcv49uGbP5RaX/zNkTQLgWi9KsZlMfkoUJl/BnmJt+VV6sk1EAN8WzC+ayOKXpOGi1J+1uPxDkFUJgM+ceJfBL8FWt02xuPwrrUsAX1zyVEIk9R9Si1u/fhaXfzmyLgHQd7hftTCC8u/AF4heb3H586xMAH/sz5oeQPVnREkMNgBTyJ+NrEwA/MYmJdL0cPuX4abJP2Jt+Qu2WZsAmBZeEt3atxGx2FnaLC5/OrI4AXrhg+X696Y0x6Ea7BxFNmvLP7vQ6gRAW2Tyrem8RyOx+6dkH2pt+TGZCJYiwFyZ9PHJNOIc6mSq2sdYXP75yPoEkO3gU/OG7uFvyAzfN8Da8kuRPYEAspVUCjL0jT1DrjdES6S15WcYCciVAJnT5H5kvJ6muLl7OKyfYfIPQj2DAOiobO+ZVs0HnRkxsvXK4i0u/4TCnkIApeLN9Zq2aluWfJGqsWnWlr8lEvUYAuBt6o+wvVT1kJEKKbmhQ60tP5cDADcCKPbxKpuqLoTybH+lnPzrFpd/FOpRBEhTbDrRMoo40sq2d7liSY5Ui8ufaOtZBEBHCEorTzrjRzDSyc6ZykMlWVz++kzUwwiAIonaUMZXzZUfJflVkmH6WVz+uFLU4wiAlkpkiEsfAEdbbAvrX0Y2REWAteXvG4F6IAHQOvIazgsrJs4aFhU5JyITpfk2Dl0X3R4ynfzbjFoscpO/Zg7qkQRAQ6n0nlLEIFbnJ07yT+P4/PMlAIpczWH9ytmdn7nIX1GIeiwBUONM5usXw3K1OMg/DqEeTAAUMZnt8hWksl0u1vJLJahnEwCFj2O5fA11rNeLrfwqC9pakQAIrbUzW77dqzisGEP5F+aip4AAaFg+q+NTGpclYyZ/vR96KgiA5ixnsXz5GbzM52zklzpt6CkhAEIvLKK+fDn+HFeNgfzjfRB6egiAfEfSXb7V0XyXjbb8UnkEeqoIgNAzYyku3wj+b0+q8seuQ+hpIwAKv0HLspodZMTK0ZM/oa03egoJgFBEEo3lqxlg1NrRkV8atRihp5MACG37TO/qtYYZuXr65U8YaKj6jSYAQo0Dx+tYvoqqYGOXT6f8e26UGiy/4QRAKLw6TuPDkx6ETADN8kvLq00gvvEEQAiN2a7ez5qTFYDMAi3y17SvMoXspiAAQra8cjU93ydn+CJTQaX8ZUlRZpHcJAToSsGbV15JtPPn1B5FJgSp/NL0jl4mEts8BHhwsfLprG+RWbsJ48LW25B5oSS/NHvcvAhziWwuAnSh98Y+qTE5K9ydrg2T32+fl1uKLABQfqm1vrw9OsrXfOKajwCPURjh37h+zbrcbat8ZyAL4rH8kY2BfoXmFdO8BBAQBBAQBBAQBBAQBBAQBBAQBBAQBBAQBBAQBBAQBBAQBBAQBBAQBBAQBBAQBBAQBBAQBBAQBBAQBBDoGQQI8AvcuH7Nx5GBAdZc2SV//+HnDZ//5/APS0wtZjmnYtsqcChvU3riBLeY6tjl/Z/bWrfKGpq//PZ/b1444XTBvtuXrnz645+XzSjtRIgAQ4ySprjP1CGhMnkVlZ+1rTGz7r9+5839Thmc+PX85yYTGaxxMN8QUXySiGrp5+esXWdK7f9x7baTAK988sU/TSR1OliyhrsYtl7flalIrmyICTKX8m2/XGtykqPpX4fNIvkxaH1nchYiqHOF6vTqSdGZplH/hg8OOtXit+Mvm0L2l8AHjKsIC+olTUhISjHFEh7/zeHUglduvW4C6eGeiOHc5vfvaNVRYqWf4YnWlz/9Rpv6u+D41fjTwHVwYXm9YVf1l3Si+RkjV+/nD5068dtbBhMgF1xWPmVLp5TQqLJWaVilnb/fclLATx8ZSgBfcFFvcJg5OLVMooMiQ2wDv59vctLBPUNtA6DdZQT7eU/VUCy1OnEu93V75x9Oenjva+MIABpf6lnP6vc+3VrLZVv5Vo7Zca3rDEft/5xNPxpW+Qasdbma9d1jvEQbzY0cF+2Xgw/0//A/FP7pcDh/+9kgAnSCy8l0Nf2HMGkYMZjXkr1889Fz63hX0PrUAAAU7ElEQVS8C3T/Q+vfnY5dx40hQDS4miwr8OYlSGwQwsc2ePj2o2ff0b0LuP03Tf/e4XSeNsRxfBJcy0HsJrzBrulS30gOC3Z1l9Pl+Xd5nGX/neznH//npw1GMEDiawzewrTt2mbmy/XBoy3bXYMABWT/G8wHh/MrAwgwHVxJRg3MIpolthjIdrHu//bo5AZpUM1DD5Gj6x8f8CfAdnAh1zKZ62iNxBpMW8ce3vf45Can0O6DHf6h93z/P/nOLe4EGABb11hMlcKj+XIIuxv1hqYnmlPSP8lnYHKc420RmAKvI4Pz1NDxEg8MYtWB5/NXXJ5UZf3LPvTgDvDwz4d/cWbANLiNIfV5osivfwsrJs4aFhU5JyITpfk2Dl0XPTWkmbxf5xA218G3d7k+3LL6P7j/vfNXP99w4P4StOO1nzf88u2b5y7eVdwBHv+L/ZxDRZ6TuEQF1RFqMC7GZwo4QFBYyGyyIUYyMf67varx+/q9m1dhy/7hr87tg3cIT178ypcAveBVpNyIeyiR/uPnFcuOsi05lqgNI4P93+2wjtsBLnwr79Y5fOe29zvA+05wmi8D4K15C9U5Ahcqq61+K0n/xzElMw24DV5ugu98rrr77av7JCfJDw4q3xdvciUA7JkroFncPk0x4rsghDgMyVY1XZEBlCMadpzAaKz7r+eIA33/9sf3MveFh7vAeZ4E8GF+o7ZVKOgrNEld7+c8pQGlLJor9NclJ2DAf7J9Ox13bx1Qd6Dc724x8N4Fjhv/DpDotTScqKCtZwPVnymVDgNnKS7QOdDa1/2PKz+oHvLP225HCu8L4n84EmAcvITptMZ/QV5V0zS10OqdKt/DfSG9KKGd3RryMuE6HRpDun7f2eRqM/S+SnKMEsqDl7CF0ikgRS7dT1qtOZjH7ztZx+JwagbAu06ZHaDpR62Gm/u3XLTvvQt8wnELwCTmJFEZPLxIVk16umitlDUMtNFZnCUnHJgd4IHVRs+D+s99+B3AwfMgOBVeQftQ1gcAe60+y3eE3GGwgI5L80NX/5/Hg+q48zddY9/fj3Modw3+JTcCHMJ16KQwdpVc72/9eb7tMsOvoNFu7COH50m9W0/79Gf2vIlzFzuczn/s4MaAeMwSbtI9coSMB2AajSaKeTInDArvsB92ub+nXXeAe/cpyP/2Xbw7iZ9v+HlcHrZuFYXIWP7otNMbir8N2PX7NC/gT+qX6MTwfdmEdyzwyyKfjPOtsrlgPLj805I9ZSx2Dt2lLt7C3tUdv/5OSf6fD+IiSpwXuRHgGdwS6su8y6xhuT0/hm8RK4PgkoPd4dseCqK4Pd+/jQkUc/AzCNp244y0ujKFO9k//w8YgPUPzU7TNfBNbMznFZryv3YQF1O4j9s5EHtYj9VRpi2FvZXmIYKw5wBd5swN2IBOylaaw7hzAEe/IHYbHaV9TGwGYBztoJ1c3F3A7q9j1Cu449k92kE7X97FxRYf4EUAH+zTGq11yI3YXE5ffjvYd9rHfB0T0evcd5+6/G85MQaB97htAVijWsFSjSOW455KFnXeknDSayfbOYxOHL8wkP8WJpz07mu8CJBSgPXWa3LXoUCcryaZhfiZRbRPAZdxu/IdFvK/fA+OEeJ4CtiOr8un6SqAcwIwKkS6qgHj1PTTOOBpzLlsPxv5L78Ch4ze/TsvAhTig+1aD6kf7ghmrLGsynngTjHPad4AwLB+Zo76tzBRgp9y2wKG4c12e9RXDEjGDHWdmfzLMAUFSzWN9iYml+cdZvKfg/PIdvHzCclUbVut2qxew8UC4HboCKVpzTwI5Po4HSzjNA7chU+d/OqI+cpEWTWoPAnWYcZhWd4T4xvO1jLW29DTz/hefgeOOb/EjQByvhspP0/VUJhAw+0sxQ/eA086R6cRyEUbTPO3fz8IZ50f4MeA7XIxVqkqBirGjOHHVPxqeNJ29SN9fRcMAbnLNlTzR6B+jMPpfJMfAZBszkUieXhAGHMfIIRwuPJwjfqR/gvn+TIO0Xh5H7gDnOBIgEDZYOvVxEZBuBKY/d+Mxa+F5X5e9UD7wSsZc8v8He/KIV1/+4UjA5bKB/GnkzkHC9nElyjCL5/OxrMDTun/kLX8970zxrr+wrVuSK08A2YSbQIY38zHzKWPAefdrXaYq7AfkH26zi3vGjNdFaV5EkAujO/hY0yQMwb7gV5lL3wQLLPa2Mb3QP3fZi//Ye+k8a7/u8+TALYcpV4dGYrR/A2GVSGPA2eep3KUfWA1Fx6pGt+DxqBvuW4BAUVKube7o+UpEAUfAX05CN8mUah/vgFO4efhmT0PeqCucSUAiqhU7tOQJVeL6Qb4nQou1xjQCT1B4yXQbTvez0P+H8AQtBN8CYACCdp41VRnqjwCvIA9u1cPLI+PLx/4whRFyU6ujQnJGTRxKt4sCb/A1N0/r3kbY7jZ5PeDQagHODOgkaSXU0LSG6pexJiTWJWLzSBngJxUabXdW1PDd5hWshkUDgHfg48hn9icneDc3yLeDCBr6FKUAdl2beA2DPejjJrv/qlJ2IzU3mfck4EL0sHIgqH6gwJsd53G3AG68CW4A3zKmwBoG2FLn4LmkuueDvdtxNYYW4f3URFTpnaKd53h2VD+rw28gahqiH0YtALwssa8Ah0DP+ROABSpoqlTXElW1AwlM9AC4L7Rn7jKWyR4LKkCPjmSfPvB4FvwJM5rF/4VYt9t/gRAq2IlVWitSErO2Bo9oM/KUaQ1h3KI04Y2YurMVpFeBJV/75Kv/9+By4c3fPmff54Gs3V/4LTu8EXQAAKgtHiaNXxbvScYhftsiecn5+KSDEO9z6F1qgNRlnx04YRbS08oWXMfr2X/E5zfmJ5C7RQJ4B2XU43/sGfrSnwlEO/sv0Dwc8OwP/Kvnd+4ax8OBuYWl3MAnP+qIQRAeYuoEcDLGBcgU+HHw3sjF6nU4SW0uopBOy55NnGDdwB+KTpgMPJ5YwiAAuNoEcDrcC/rdnQL5LTJnUZCvcwL04jeKo/w8kWHexM33A7wBbc1vwfN/4FBBECZSZQI4GXikb1lFCm/1bGJRoPUeAOuebVyw+wA/No8X4GCEa4hw1CVT4UAnlHFH7tVeD+J0JhEXCBnutuWPwWhaNc7YbOnwGBMQH/4x70DVOmEdwB+pTtvQl0lrhhHANQ4mgYBPBMLXHqHh/Z5+K8WuHw8w+WjLsG+cY/SvV3zzo54jPycioS020rNfp78e3493T6FZNiPjEQGBQLMwR/sn7zwXbyIId2fdG1x/qSqsEtVo70eI6+Fpp8O/rD/wJVZoB3gMrfV/h8kw/eGEgAdqtBNAE+nQffBrqzb8tD98dEuRkCoWsU8fLj6JnKH8B0oChsu2sYtRxPthIwRJ5DB8NHb8g1/BnSx09dDdiOXM2B3g+Aj+PYQg6Hpx4O/6hy+SJ/nH36dfI5DLUleQYYjrIwqAcDzWb/uRKTufzkM8uqG44vYLCC3BX/iUG4ByN0W+y3YYcx4AqAZnXoI4Gmx695RpnX/y25/f2X3v8yFcnxcmh4fI7EwlsE3LmL9O/jl6H4E7UZNyAwIHKWdAJ4Bgcu7/6dtgKpdLMf+kFOvBF/QNpU8O+gmSQfIh3+4lWrpOgN4xyP+A5kD/umhGgngGcATAlzRJsE+YZdRHje2Xx+KrziQrGhZeoI/sG1gvf7GzxtzB+osfA+ZBcXtNVTsANEu/9uyB/lGxcMx0QPxXoGFua7nkUISO0A9bAjepdjY9fEfjnYASI5LyETIC9FAAE9LoFvP2taYBYOTynBHBreX+vz2623xssE+oCUwHm90IWv+ys8S+C/IMHkBmQppgwepNRB7mmuQbLSBWxZhhOzAVUS+gGXwD1lykKS9c9cffr6ADyHD5DlkNoQPG6eqG7SXNzCX/IVRQuo2egCwSeFEzM/40ukkOwfw8wb+n/sm9PC/vIfMiF4diQtJCeAd6def+MNzZbabPghvYXBBLe43vLVL2QjU9Q9+/VxB18QdZFYU1720ZToBAbycdmgOdgdpXUxi3PP0GTzCRtLgwUf44YKyHdDp4Fe7/2fQNfEHMjciq6b2mx8rl07S4P2lNZgrZYJ3SbIOzKjLw70+OozoEuJmetsnfwF48IebJeaqp2viwd82IAsBjssFSg3CusqHOpdvgePRgW7jcCCjfH3y198+f2fnj39c/eXLwwfuu1liuv/GyxDwJthPeomVCABXGQkDPpkLxAXOhAvTJgPpRp9Bas2GJl+hRv4/oe3A+SOn1bvkBDrJ/sNK+kdzJeKLmL+Xn3kkrpiDz2yi6l8B4OQ5auTfAe0ADk4xOb/fhd5Cn1iKAGghuTsGvesW8VkkU0o+oN21B519y2IV24+6XugHoR3gGz5r9zZ4EL1pLQLEqzqHPR/zyAa4p0ShHGlp9GePD38ZuI7jxyiUi/0Q2gE4GYM/BQ+iH1mLAB1k4bvdmLEqN/cQWVHniKCo9Udk/nfQDCQdVXcOA++CfK7iJ8BGVT9biwAD6NTq0gI4O3ysypsYaA7gUqtrg0eRyEfN5K2lf+QHNwvJ5TB1CaEZUv4U6ADNATy6OX8AGiFOW4wALrF9rhjIfmIbbIsarPYqBvkDHRyyc2z7QDPUcasR4AZpgjBtYJKIAlUOcx40CnJIEP4T9kj9YDUCRMJ6iGY+8Ui4ppnaYQ67hOO4qIP9g/gr6JM+gSyHmYSuW8qAi9OotAI8OIu7ZQs+/vN/rOU/7G2CotyomBcwKaXDGE/7Plk0kjJuurtjH6uFdZb+aaBLAddoJGpYCWtiPttZ/e103gDdOWMeymDsEz7g8ApIs+gbwDXC3w3rjNh31moY6rbbffyJQv7JVP5bYL8IjsFIFJFswBawsYBejeLzXpVC2W8BP7uHoT2Z/zUrEsDXLlEwytOwPqjzBD7G3x2eobkP/wtLp/AlB9CnjHqvel7ABP2On8tsxmhM1NACTaNdcQ/MexIYxK5t1HEgKZhngULK2ItRxyhWE87ABKS1hmsa7h24agi7yu079jnAaNR9S6xJADSTOIyXDp7FzDdL43j/AKuGsOsdewXMTTGuPphupGIUMv4Ik+lwVQfHB2gc8EewaojT0cTGLvsRJh69yaobAArH1QEcbWMwWwouabVW64i/H4R3AOdvLOR/fRcmO+UOsizacBHix+jPlbkb19QgTfOYO4GggAccYFC7/eWfMNHor+ywLgHCcYkf9gW0p7IlMiCbex9P1/sg9XO5DZOcwoRs/LAWmyVyivJMI3AT5etpVnzeAdaQczidb1OW/xouL3XX11YmQCE2cTA/iupEHVimzdIz7JKDTngHcO76nKr8n0Kn/weznUeWRhVWMeODKE6zCd/crLeuga86cHUEmw5TlP+/uMx054m/rE0ATA/pLqxeT++wacfO0kvn0BcgzTz42zf0gsTPY+vSMPY9ccAcfEWhhF6U5ojBJ6Qu0zv2D7twtYQdr9BSzr+waamGFghmfg6UWqpoTNBbplxNfoTu4XdiS8c671LJ2P7rnMO7ItSjP7vuW58ASK4N7RkK58whMuPPoiD/907PBKHuV8FX+odfst/pxO0AVj8BPkSQXFm5UQE6R4+UayXRTMNid/muR4qg6zH9ml4z7YbbDs/Bu/9c/KsnEABtlSsb0neorrFT5dg1fjEV+Y/jdwCH8yd9R8Gdu+DBH140XkM9A/3lGNDSpv0xjUiUrUmzlJL856AL+mMO3D2vXf77Fzzjjt22gLd7iP5RoXwn6maNm4BNoXh1Jy35Xz4BmeiecOCixk3A9tU3TjAE9NGfD1CPQW6BrKbsW7Qc1qOmKdSkouey23AXLhv1WHXXtBzWP7/nwJDq4f+7aOs5BEBZCgXE8juLVY64XqmnZVkgRfm/hQvHPVHdrk/VWuw3/OrSFAKKO2j6AfUkHFOqIbcouVDFcI3L7EqUGkNV/jchP52r7pr+p+Y+8PM597hv79jDV75EPQvKxYVXp5I67lPKlYsS1lGW/zRkCXIvILOT1HH/+mmZyqSPGPZnD9M/Cq5XVlpof59g5ZN/arPySHYf2vL/fgl4B3hc4O5eufq78sl/50VsJcInHHBcRT0OxZUk5WQbkvbKRY0HhQ0nqkrLIPfg69tOzAPr+vemW2/JnQYO//iJfH/iRxz4EfVA+E8grCk8LWYAUFKyMDcshLRnUTIL+V874ZBrMdjdf/bezbeAgj5Lvvzq3DdOpf7EDwf5H+qRiChSUVq8b3zJ2jODB+T1ul5VnVE7IrtVxXeT2ch//55ci0HXe4HT6fzpwgdffHX8rbf/+c4fH+28c+3SvieticFeBG4DfoF6KKZQ60Mth4IFrOTfcRE+sLnfCh8xwOnZkd7hBCsOeL1QHN+iHou0Zvb6z69jJ/+SS/jWUu6WAQfUkd6FHvgT4K5fUA9GQA5r/c8eylL+Jb8qXN88OtF7XxcxG8CTr+/bgHo20tnqf/ccxvLfkW8x57oDuP0dLjfhGQHoPHEA9XQMLmCo//hC5vL/2UTSY8grvs+76APwWcevS1DPx7oyVuq3r+Uh/4F7TrI2U1DzP/mvfIGeCqwqYqP/1XV85F/ynsJLAHjMSXrTNf2JnhIEt7cw0P/kxdx+wDv7CDvNQSZD3De+fw09PQiaRF3/U3nKf/+KcqthKJdA5htvoqcKtk0JVNVfcYjzDzje5CRvPO+Usf4+/LP/dfS0wT+Envpbq/jLf+A0sfodSm+Bfd+ipxG5lOyCBQMLDZH/y4symz7ufAj9Tx8sQU8nbFU1FEy/Mf6G/YA/Tsgf7wjOh45dty6jpxfhbXv0qX98+1wj5X/5/EEVuwDwt6Y3v0ZPN2zD4u2a1T/hTKbR8v/t6gWHml3APff7q5eRADrUqck2mFC+1ByB05c/bVL5Cnjwj1dO//mXUP4jy5BP/1CVVt+c6ADzyP/71St3CawCLlRwfHJ8idC7K9JeGKLi1t/mazb5d3z0iRNnC/LaAvaff01o3BtHspJeVVZ+Tfr1AHPK/9pHt26D50E3i8DBm++IZx+P4j5Th2ALS00YnrR5o7nl//qdN/cfxJ35T3xy66vXhY6VETC0qra8ormocuEiSSrb3ZwYEjN169KjlpF/yYY/7pzef/HeiYNNTkfT7YsXzt369Me3dbf+/P/wmao/+swjEAAAAABJRU5ErkJggg==;" vertex="1" parent="1">
          <mxGeometry x="460" y="234" width="56" height="56" as="geometry" />
        </mxCell>
        <mxCell id="qPDrxui3yycS4Ta56Oi9-5" value="" style="shape=image;html=1;verticalAlign=top;verticalLabelPosition=bottom;labelBackgroundColor=#ffffff;imageAspect=0;aspect=fixed;image=https://cdn1.iconfinder.com/data/icons/unicons-line-vol-3/24/docker-128.png" vertex="1" parent="1">
          <mxGeometry x="650" y="232" width="56" height="56" as="geometry" />
        </mxCell>
        <mxCell id="qPDrxui3yycS4Ta56Oi9-6" value="" style="endArrow=classic;html=1;rounded=0;" edge="1" parent="1">
          <mxGeometry width="50" height="50" relative="1" as="geometry">
            <mxPoint x="140" y="260" as="sourcePoint" />
            <mxPoint x="260" y="260" as="targetPoint" />
          </mxGeometry>
        </mxCell>
        <mxCell id="qPDrxui3yycS4Ta56Oi9-7" value="" style="endArrow=classic;html=1;rounded=0;" edge="1" parent="1">
          <mxGeometry width="50" height="50" relative="1" as="geometry">
            <mxPoint x="330" y="259.5" as="sourcePoint" />
            <mxPoint x="450" y="259.5" as="targetPoint" />
          </mxGeometry>
        </mxCell>
        <mxCell id="qPDrxui3yycS4Ta56Oi9-8" value="" style="endArrow=classic;html=1;rounded=0;" edge="1" parent="1">
          <mxGeometry width="50" height="50" relative="1" as="geometry">
            <mxPoint x="520" y="259.5" as="sourcePoint" />
            <mxPoint x="640" y="259.5" as="targetPoint" />
          </mxGeometry>
        </mxCell>
        <mxCell id="qPDrxui3yycS4Ta56Oi9-9" value="Commit" style="text;html=1;align=center;verticalAlign=middle;resizable=0;points=[];autosize=1;strokeColor=none;fillColor=none;" vertex="1" parent="1">
          <mxGeometry x="160" y="230" width="60" height="30" as="geometry" />
        </mxCell>
        <mxCell id="qPDrxui3yycS4Ta56Oi9-10" value="Trigger" style="text;html=1;align=center;verticalAlign=middle;resizable=0;points=[];autosize=1;strokeColor=none;fillColor=none;" vertex="1" parent="1">
          <mxGeometry x="360" y="230" width="60" height="30" as="geometry" />
        </mxCell>
        <mxCell id="qPDrxui3yycS4Ta56Oi9-11" value="CI / Build" style="text;html=1;align=center;verticalAlign=middle;resizable=0;points=[];autosize=1;strokeColor=none;fillColor=none;" vertex="1" parent="1">
          <mxGeometry x="535" y="230" width="70" height="30" as="geometry" />
        </mxCell>
        <mxCell id="qPDrxui3yycS4Ta56Oi9-12" value="Container Registry" style="text;html=1;align=center;verticalAlign=middle;resizable=0;points=[];autosize=1;strokeColor=none;fillColor=none;" vertex="1" parent="1">
          <mxGeometry x="615" y="280" width="120" height="30" as="geometry" />
        </mxCell>
        <mxCell id="qPDrxui3yycS4Ta56Oi9-13" value="App code" style="text;html=1;align=center;verticalAlign=middle;resizable=0;points=[];autosize=1;strokeColor=none;fillColor=none;" vertex="1" parent="1">
          <mxGeometry x="270" y="298" width="70" height="30" as="geometry" />
        </mxCell>
        <mxCell id="qPDrxui3yycS4Ta56Oi9-14" value="GitHub&lt;div&gt;Actions&lt;/div&gt;" style="text;html=1;align=center;verticalAlign=middle;resizable=0;points=[];autosize=1;strokeColor=none;fillColor=none;" vertex="1" parent="1">
          <mxGeometry x="460" y="291" width="60" height="40" as="geometry" />
        </mxCell>
        <mxCell id="qPDrxui3yycS4Ta56Oi9-15" value="" style="verticalLabelPosition=bottom;html=1;verticalAlign=top;align=center;strokeColor=none;fillColor=#00BEF2;shape=mxgraph.azure.git_repository;" vertex="1" parent="1">
          <mxGeometry x="277" y="378" width="56" height="56" as="geometry" />
        </mxCell>
        <mxCell id="qPDrxui3yycS4Ta56Oi9-16" value="Helm Chart&lt;div&gt;&lt;br&gt;&lt;/div&gt;" style="text;html=1;align=center;verticalAlign=middle;resizable=0;points=[];autosize=1;strokeColor=none;fillColor=none;" vertex="1" parent="1">
          <mxGeometry x="638" y="386" width="80" height="40" as="geometry" />
        </mxCell>
        <mxCell id="qPDrxui3yycS4Ta56Oi9-17" value="" style="endArrow=classic;html=1;rounded=0;edgeStyle=orthogonalEdgeStyle;exitX=0.517;exitY=1.1;exitDx=0;exitDy=0;exitPerimeter=0;" edge="1" parent="1" source="qPDrxui3yycS4Ta56Oi9-14">
          <mxGeometry width="50" height="50" relative="1" as="geometry">
            <mxPoint x="490" y="370" as="sourcePoint" />
            <mxPoint x="636" y="370" as="targetPoint" />
            <Array as="points">
              <mxPoint x="489" y="370" />
            </Array>
          </mxGeometry>
        </mxCell>
        <mxCell id="qPDrxui3yycS4Ta56Oi9-18" value="CD / Update version" style="text;html=1;align=center;verticalAlign=middle;resizable=0;points=[];autosize=1;strokeColor=none;fillColor=none;" vertex="1" parent="1">
          <mxGeometry x="505" y="340" width="130" height="30" as="geometry" />
        </mxCell>
        <mxCell id="qPDrxui3yycS4Ta56Oi9-19" value="" style="shape=image;verticalLabelPosition=bottom;labelBackgroundColor=default;verticalAlign=top;aspect=fixed;imageAspect=0;image=data:image/vnd.microsoft.icon,AAABAAEAQEAAAAEAIAAoQgAAFgAAACgAAABAAAAAgAAAAAEAIAAAAAAAAEAAAMMOAADDDgAAAAAAAAAAAAAAAAAAAAAAAAAAAAAAAAAAAAAAAAAAAAAAAAAAAAAAAAAAAAAAAAAAAAAAAAAAAAAAAAAAAAAAAAAAAAAAAAAAAAAAAAAAAAAAAAAAAAAAAAAAAAAAAAAARXPzFkt57FRLeO2USnnv1Et57f5Lee7/Snjv4kp47oxUceIJAAAAAAAAAAAAAAAASXrtSUl578ZLee34S3nu/0t47e1Lee2wS3jvcEh37zF/f/8CAAAAAAAAAAAAAAAAAAAAAAAAAAAAAAAAAAAAAAAAAAAAAAAAAAAAAAAAAAAAAAAAAAAAAAAAAAAAAAAAAAAAAAAAAAAAAAAAAAAAAAAAAAAAAAAAAAAAAAAAAAAAAAAAAAAAAAAAAAAAAAAAAAAAAAAAAAAAAAAAAAAAAAAAAAAAAAAAAAAAAAAAAAAAAAAAAAAAAAAAAAAAAAAAAAAAAD9//wRLePARS3jwEUt48BFLePARSH/sDgAAAABIefIVTHjtaEl57exLee7/SnntvwAA/wEAAAAASnnvUkt57f5Lee7/S3jtpUx67zJ/f/8CVX//Bkt48BFLePARS3jwEUt48BFFc+cLAAAAAAAAAAAAAAAAAAAAAAAAAAAAAAAAAAAAAAAAAAAAAAAAAAAAAAAAAAAAAAAAAAAAAAAAAAAAAAAAAAAAAAAAAAAAAAAAAAAAAAAAAAAAAAAAAAAAAAAAAAAAAAAAAAAAAAAAAAAAAAAAAAAAAAAAAAAAAAAAAAAAAAAAAAAAAAAAAAAAAAAAAAAAAAAAAAAAAAAAAAAAAAAASHbsHEp37k9Kee2CS3jvtkt47/FLeO/3S3jvtk177yFKeu9gS3nu/0t57v9Keu8wAAAAAEt47b5Lee7/S3ntzgAA/wFKeO57SXnv5Ut57v9LeO3PSnnumUt47WZLePAzVX//BgAAAAAAAAAAAAAAAAAAAAAAAAAAAAAAAAAAAAAAAAAAAAAAAAAAAAAAAAAAAAAAAAAAAAAAAAAAAAAAAAAAAAAAAAAAAAAAAAAAAAAAAAAAAAAAAAAAAAAAAAAAAAAAAAAAAAAAAAAAAAAAAAAAAAAAAAAAAAAAAAAAAAAAAAAAAAAAAAAAAAAAAAAAAAAAAEx/5QpLee49S3jsREt47ERLeOxES3jsREh78CNFc+cLSnnvl0t57v9Lee+3S3jtSkt57v9Lee7/SnnsYwAA/wFLee7wS3nu/0t47rpLeu1HS3nu/0p47+JLd+4vVX/pDEp37j5LeOxES3jsREt47ERLeOxER3fvIAAAAAAAAAAAAAAAAAAAAAAAAAAAAAAAAAAAAAAAAAAAAAAAAAAAAAAAAAAAAAAAAAAAAAAAAAAAAAAAAAAAAAAAAAAAAAAAAAAAAAAAAAAAAAAAAAAAAAAAAAAAAAAAAAAAAAAAAAAAAAAAAAAAAAAAAAAAAAAAAAAAAAAAAAAAAAAAAAAAAAAAAAAAVHHiCUt67UdLee2VSnnt4Ut57v9Lee7/S3jueU177yFLee7/S3nv40p37k9Lee7/S3nu/0t57ZVNePAkS3nu/0t57v9Kee2/THjtckt57v9Lee2RTXvvIUt57elLee7/S3nt+Et577dLee1pSnvuHwAAAAAAAAAAAAAAAAAAAAAAAAAAAAAAAAAAAAAAAAAAAAAAAAAAAAAAAAAAAAAAAAAAAAAAAAAAAAAAAAAAAAAAAAAAAAAAAAAAAAAAAAAAAAAAAAAAAAAAAAAAAAAAAAAAAAAAAAAAAAAAAAAAAAAAAAAAAAAAAAAAAAAAAAAAAAAAAAAAAAAAAAAAAAAAAAAAAAAAAAAAAAAAAAAAAABKeO5uS3nu/0t47e1LePAiS3nu/0t57/RLeexUS3nu/0t57v9LeO/HSnntVkt57v9Lee7/S3jvxEt47YNLee7/Snntk0t47n1Lee7/S3jty1B48RMAAAAAAAAAAAAAAAAAAAAAAAAAAAAAAAAAAAAAAAAAAAAAAAAAAAAAAAAAAAAAAAAAAAAAAAAAAAAAAAAAAAAAAAAAAAAAAAAAAAAAAAAAAAAAAAAAAAAAAAAAAAAAAAAAAAAAAAAAAAAAAAAAAAAAAAAAAAAAAAAAAAAAAAAAAAAAAAAAAAAAAAAAAAAAAAAAAAAAAAAAAAAAAAAAAAAAAAAAAAAAAAAAAAAATHrvMkt57v9Lee7/SHfvMUt57v9Lee7/S3juX0t57v9Lee7/Snjv9Ul57opLee7/S3nu/0p47slLeO2US3nu/0t47phLeO6YS3nu/0t57aIAAAAAAAAAAAAAAAAAAAAAAAAAAAAAAAAAAAAAAAAAAAAAAAAAAAAAAAAAAAAAAAAAAAAAAAAAAAAAAAAAAAAAAAAAAAAAAAAAAAAAAAAAAAAAAAAAAAAAAAAAAAAAAAAAAAAAAAAAAAAAAAAAAAAAAAAAAAAAAAAAAAAAAAAAAAAAAAAAAAAAAAAAAAAAAAAAAAAAAAAAAAAAAAAAAAAAAAAAAAAAAAAAAAAAAAAAAEp570FLee7/S3nu/0x47EZLee7/S3nu/0p47XRLee7/S3nu/0t57v9Ld+/GS3nu/0t57v9Lee3OS3jtpUt57v9LeO6cS3juqUt57v9Kee2xAAAAAAAAAAAAAAAAAAAAAAAAAAAAAAAAAAAAAAAAAAAAAAAAAAAAAAAAAAAAAAAAAAAAAAAAAAAAAAAAAAAAAAAAAAAAAAAAAAAAAAAAAAAAAAAAAAAAAAAAAAAAAAAAAAAAAAAAAAAAAAAAAAAAAAAAAAAAAAAAAAAAAAAAAAAAAAAAAAAAAAAAAAAAAAAAAAAAAAAAAAAAAAAAAAAAAAAAAAAAAAAAAAAAAAAAAABLd+9RS3nu/0t57v9Kee5cS3nu/0t57v9Lee6LS3nu/0t57v9Lee7/Snnv8kt57v9Lee7/Snjv00t577dLee7/SnjtoUt47rpLee7/SnjtwAAAAAAAAAAAAAAAAAAAAAAAAAAAAAAAAAAAAAAAAAAAAAAAAAAAAAAAAAAAAAAAAAAAAAAAAAAAAAAAAAAAAAAAAAAAAAAAAAAAAAAAAAAAAAAAAAAAAAAAAAAAAAAAAAAAAAAAAAAAAAAAAAAAAAAAAAAAAAAAAAAAAAAAAAAAAAAAAAAAAAAAAAAAAAAAAAAAAAAAAAAAAAAAAAAAAAAAAAAAAAAAAAAAAAAAAAAATHjvYUt57v9Lee7/THjtckt57v9Lee7/SnjtoUt57v9Lee7/S3nu/0t57v9Lee7/S3nu/0t47thLee7IS3nu/0t576ZLeO3LS3nu/0p57dAAAAAAAAAAAAAAAAAAAAAAAAAAAAAAAAAAAAAAAAAAAAAAAAAAAAAAAAAAAAAAAAAAAAAAAAAAAAAAAAAAAAAAAAAAAAAAAAAAAAAAAAAAAAAAAAAAAAAAAAAAAAAAAAAAAAAAAAAAAAAAAAAAAAAAAAAAAAAAAAAAAAAAAAAAAAAAAAAAAAAAAAAAAAAAAAAAAAAAAAAAAAAAAAAAAAAAAAAAAAAAAAAAAAAAAAAAAEt473BLee7/S3nu/0t47YdLee7/S3nu/0t577dLee7/S3nu/0t57v9Lee7/S3nu/0t57v9Kee3dS3nu2Ut57v9KeO6rS3jt3Et57v9Lee3fAAAAAAAAAAAAAAAAAAAAAAAAAAAAAAAAAAAAAAAAAAAAAAAAAAAAAAAAAAAAAAAAAAAAAAAAAAAAAAAAAAAAAAAAAAAAAAAAAAAAAAAAAAAAAAAAAAAAAAAAAAAAAAAAAAAAAAAAAAAAAAAAAAAAAAAAAAAAAAAAAAAAAAAAAAAAAAAAAAAAAAAAAAAAAAAAAAAAAAAAAAAAAAAAAAAAAAAAAAAAAAAAAAAAAAAAAABLee2AS3nu/0t57v9KeO6dS3nu/0t57v9JeO3NS3nu/0t57v9Lee7/S3nu/0t57v9Lee7/Snjv4kt47epLee7/Snjtr0t47e1Lee7/SXjt7wAAAAAAAAAAAAAAAAAAAAAAAAAAAAAAAAAAAAAAAAAAAAAAAAAAAAAAAAAAAAAAAAAAAAAAAAAAAAAAAAAAAAAAAAAAAAAAAAAAAAAAAAAAAAAAAAAAAAAAAAAAAAAAAAAAAAAAAAAAAAAAAAAAAAAAAAAAAAAAAAAAAAAAAAAAAAAAAAAAAAAAAAAAAAAAAAAAAAAAAAAAAAAAAAAAAAAAAAAAAAAAAAAAAAAAAAAASnntj0t57v9Lee7/S3nts0t57v9Lee7/S3nv40t57v9Lee7/S3nu/0t57v9Lee7/S3nu/0t57+dLee36S3nu/0p577VKee38S3nu/0l47f1/f/8CAAAAAAAAAAAAAAAAAAAAAAAAAAAAAAAAAAAAAAAAAAAAAAAAAAAAAAAAAAAAAAAAAAAAAAAAAAAAAAAAAAAAAAAAAAAAAAAAAAAAAAAAAAAAAAAAAAAAAAAAAAAAAAAAAAAAAAAAAAAAAAAAAAAAAAAAAAAAAAAAAAAAAAAAAAAAAAAAAAAAAAAAAAAAAAAAAAAAAAAAAAAAAAAAAAAAAAAAAAAAAAAAAAAAAEt47Z9Lee7/S3nu/0p57spLee7/S3nu/0p47flLee7/S3nu/0t57v9Lee7/S3nu/0t57v9KeO35S3nu/0t57v9Kee7KS3nu/0t57v9Lee7/T3/vEAAAAAAAAAAAAAAAAAAAAAAAAAAAAAAAAAAAAAAAAAAAAAAAAAAAAAAAAAAAAAAAAAAAAAAAAAAAAAAAAAAAAAAAAAAAAAAAAAAAAAAAAAAAAAAAAAAAAAAAAAAAAAAAAAAAAAAAAAAAAAAAAAAAAAAAAAAAAAAAAAAAAAAAAAAAAAAAAAAAAAAAAAAAAAAAAAAAAAAAAAAAAAAAAAAAAAAAAAAARWjnFn9//wJKee2uS3nu/0t57v9Lee3fS3nu/0t57v9Lee3/S3ju/0t47v9LeO7/S3jt/0t47v9LeO3/S3nu/0t57v9Lee7/S3nt30t57v9Lee7/S3nu/0t16iVQa+QTAAAAAAAAAAAAAAAAAAAAAAAAAAAAAAAAAAAAAAAAAAAAAAAAAAAAAAAAAAAAAAAAAAAAAAAAAAAAAAAAAAAAAAAAAAAAAAAAAAAAAAAAAAAAAAAAAAAAAAAAAAAAAAAAAAAAAAAAAAAAAAAAAAAAAAAAAAAAAAAAAAAAAAAAAAAAAAAAAAAAAAAAAAAAAAAASWTqJkpl6HtLZOjLSWTq7Etl6f9LZOjLS3jtvkt57v9Lee7/Snfv9Ut37v9Lde3/S3Xt/0t07P9LdOz/S3Ts/0t07P9LdOz/S3Ts/0x07v9Ldu3/S3jt/0p47vVLee7/S3nu/0t57v9LZ+n0SmXo/Etk6ulLZOjFSmbpeElk6iYAAAAAAAAAAAAAAAAAAAAAAAAAAAAAAAAAAAAAAAAAAAAAAAAAAAAAAAAAAAAAAAAAAAAAAAAAAAAAAAAAAAAAAAAAAAAAAAAAAAAAAAAAAAAAAAAAAAAAAAAAAAAAAAAAAAAAAAAAAAAAAAAAAAAAAAAAAAAAAAAAAAAAAAAAAAAAAAAAAAAAM2b/BUxl6jJLZOiVSmTo80l47c1LeO3/S3bu/0t07P9LdOz/S3Ts/0t17P9Ldu7/S3ft/0t37f9Ld+7/S3bt/0t27v9Ldez/S3Ts/0t07P9LdO3/S3ft/0t57v9Lee7/S2rq/0tl6JRMZeoyM2b/BQAAAAAAAAAAAAAAAAAAAAAAAAAAAAAAAAAAAAAAAAAAAAAAAAAAAAAAAAAAAAAAAAAAAAAAAAAAAAAAAAAAAAAAAAAAAAAAAAAAAAAAAAAAAAAAAAAAAAAAAAAAAAAAAAAAAAAAAAAAAAAAAAAAAAAAAAAAAAAAAAAAAAAAAAAAAAAAAAAAAAAAAAAAAAAAAAAAAAAAAAAAAAAAAEpl6aRJd+zgS3Tt/0t07P9MdO3/S3fu/0x47/9Lee7/S3nu/0t57v9Lee7/S3nu/0t57v9Lee7/S3ru/0t47v9Ldu7/S3Ts/0t07P9Lde3/S3ft/0tt6ssAAAAAAAAAAAAAAAAAAAAAAAAAAAAAAAAAAAAAAAAAAAAAAAAAAAAAAAAAAAAAAAAAAAAAAAAAAAAAAAAAAAAAAAAAAAAAAAAAAAAAAAAAAAAAAAAAAAAAAAAAAAAAAAAAAAAAAAAAAAAAAAAAAAAAAAAAAAAAAAAAAAAAAAAAAAAAAAAAAAAAAAAAAAAAAAAAAAAAAAAAAAAAAAAAAAAAAAAAAAAAAABLZ+MlS3Ps8kx07f9Ld+7/S3ru/0t57v9Lee7/S3nu/0t57v9Lee7/S3nu/0t57v9Lee7/S3nu/0t57v9Lee7/S3nu/0t47f9Ldu3/S3Ts/0t07P9Kc+13AAAAAAAAAAAAAAAAAAAAAAAAAAAAAAAAAAAAAAAAAAAAAAAAAAAAAAAAAAAAAAAAAAAAAAAAAAAAAAAAAAAAAAAAAAAAAAAAAAAAAAAAAAAAAAAAAAAAAAAAAAAAAAAAAAAAAAAAAAAAAAAAAAAAAAAAAAAAAAAAAAAAAAAAAAAAAAAAAAAAAAAAAAAAAAAAAAAAAAAAAAAAAAAAAAAAAAAAAADrzboa3Ma5mk547f9Lee7/S3ju/0t57v9Lee7/S3nu/0t57v9Lee7/S3nu/0t57v9Lee7/S3nu/0t57v9Lee7/S3nu/0t57v9Lee7/S3nu/0x57v9Ldu3/m6PR4OrOtUkAAAAAAAAAAAAAAAAAAAAAAAAAAAAAAAAAAAAAAAAAAAAAAAAAAAAAAAAAAAAAAAAAAAAAAAAAAAAAAAAAAAAAAAAAAAAAAAAAAAAAAAAAAAAAAAAAAAAAAAAAAAAAAAAAAAAAAAAAAAAAAAAAAAAAAAAAAAAAAAAAAAAAAAAAAAAAAAAAAAAAAAAAAAAAAAAAAAAAAAAAAP+qqgPqz7Zw6tK68uzh1P9Lee7/S3nu/0t57v9Lee7/S3nu/0t57v9Lee7/S3nu/0t57v9DbNT/PGG+/0l26P9Lee7/S3nu/0t57v9Lee7/S3nu/0t57v9Lee7/S3nu/5Sr5//u2cP/6c+1sebNtB8AAAAAAAAAAAAAAAAAAAAAAAAAAAAAAAAAAAAAAAAAAAAAAAAAAAAAAAAAAAAAAAAAAAAAAAAAAAAAAAAAAAAAAAAAAAAAAAAAAAAAAAAAAAAAAAAAAAAAAAAAAAAAAAAAAAAAAAAAAAAAAAAAAAAAAAAAAAAAAAAAAAAAAAAAAAAAAAAAAAAAAAAAAOfQuRbqzrW5797J//fz4//l5+f/S3nu/0t57v9Lee7/S3nu/0t57v9Lee7/S3nu/0p47P8iNmn/AgID/wEBAf8JDhv/Ol65/0t57v9Lee7/S3nu/0t57v9Lee7/S3nu/0t57v97m+z/+PXm//Po1v/q0rry6tC1VwAAAAAAAAAAAAAAAAAAAAAAAAAAAAAAAAAAAAAAAAAAAAAAAAAAAAAAAAAAAAAAAAAAAAAAAAAAAAAAAAAAAAAAAAAAAAAAAAAAAAAAAAAAAAAAAAAAAAAAAAAAAAAAAAAAAAAAAAAAAAAAAAAAAAAAAAAAAAAAAAAAAAAAAAAAAAAAAOvNtDPs0bno8+jW//j15v/49eb/2uDn/0t57v9Lee7/S3nu/0t57v9Lee7/S3nu/0t57v8pQoL/AQEB/wEBAf8BAQH/AQEB/wYKEv9Ebtj/S3nu/0t57v9Lee7/S3nu/0t57v9Lee7/cZXt//j15v/49eb/9/Hi/+3Zwv/qz7WH////AQAAAAAAAAAAAAAAAAAAAAAAAAAAAAAAAAAAAAAAAAAAAAAAAAAAAAAAAAAAAAAAAAAAAAAAAAAAAAAAAAAAAAAAAAAAAAAAAAAAAAAAAAAAAAAAAAAAAAAAAAAAAAAAAAAAAAAAAAAAAAAAAAAAAAAAAAAAAAAAAOvPtEHr0rvz9e7d//j15v/49eb/+PXm/9DY6P9Lee7/S3nu/0t57v9Lee7/S3nu/0t57v9Hc+P/BgkQ/19fX//CwsP/zc/T/6Gho/8wMDD/JDlv/0t57v9Lee7/S3nu/0t57v9Lee7/S3nu/2qP7f/49eb/+PXm//j15v/49OX/797I/+vOtZ//qqoDAAAAAAAAAAAAAAAAAAAAAAAAAAAAAAAAAAAAAAAAAAAAAAAAAAAAAAAAAAAAAAAAAAAAAAAAAAAAAAAAAAAAAAAAAAAAAAAAAAAAAAAAAAAAAAAAAAAAAAAAAAAAAAAAAAAAAAAAAAAAAAAAAAAAAOvNtTTs07v09vDf//j15v/49eb/+PXm//j15v/Dz+b/S3nu/0t57v9Lee7/S3nu/0t57v9Lee7/MlGf/4uLi/////////////P2/v/7/P7//f3+/11ibf9Lee7/S3nu/0t57v9Lee7/S3nu/0t57v9hiev/+PXm//j15v/49eb/+PXm//j15v/w38r/6c61mAAAAAAAAAAAAAAAAAAAAAAAAAAAAAAAAAAAAAAAAAAAAAAAAAAAAAAAAAAAAAAAAAAAAAAAAAAAAAAAAAAAAAAAAAAAAAAAAAAAAAAAAAAAAAAAAAAAAAAAAAAAAAAAAAAAAAAAAAAAAAAAAObNtB/s0rnr9e/d//j15v/49eb/+PXm//j15v/18N3/sb/b/0t57v9Lee7/S3nu/0t57v9Lee7/S3nu/0ZWgv/19vn/qb/2/1uF8P9Lee7/UX3v/5Gs8v/W2d//SHTi/0t57v9Lee7/S3nu/0t57v9Lee7/WoPr//Lr1v/49OT/+PXm//j15v/49eb/+PXl/+/cxv/pzrZ4AAAAAAAAAAAAAAAAAAAAAAAAAAAAAAAAAAAAAAAAAAAAAAAAAAAAAAAAAAAAAAAAAAAAAAAAAAAAAAAAAAAAAAAAAAAAAAAAAAAAAAAAAAAAAAAAAAAAAAAAAAAAAAAAAAAAAP+/vwTrz7bF9OnY//j15v/49eb/+PXm//j15v/07tr/8OjQ/6S13/9Lee7/S3nu/0t57v9Lee7/S3nu/0t57v9pfKn/bZHu/0t57v9Lee7/S3nu/0t57v9Lee7/Zoje/1R63P9Lee7/S3nu/0t57v9Lee7/S3nu/1WA7f/w6ND/8erU//fz4//49eb/+PXm//j15v/38+X/7NW//ejNtkMAAAAAAAAAAAAAAAAAAAAAAAAAAAAAAAAAAAAAAAAAAAAAAAAAAAAAAAAAAAAAAAAAAAAAAAAAAAAAAAAAAAAAAAAAAAAAAAAAAAAAAAAAAAAAAAAAAAAAAAAAAAAAAADpz7WB8eDM//j15v/49eb/+PXm//j15v/07tv/8OjQ//Do0P+YreD/S3nu/0t57v9Lee7/S3nu/0t57v9Lee7/Snfo/0t57v9Lee7/S3nu/0t57v9Lee7/S3nu/0t57v9Lee7/S3nu/0t57v9Lee7/S3nu/0t57v9Qfe3/8OjQ//Do0P/x6tP/+PTk//j15v/49eb/+PXm//bw3//q0bjk69ewDQAAAAAAAAAAAAAAAAAAAAAAAAAAAAAAAAAAAAAAAAAAAAAAAAAAAAAAAAAAAAAAAAAAAAAAAAAAAAAAAAAAAAAAAAAAAAAAAAAAAAAAAAAAAAAAAAAAAADpzbgk7NS9+Pfz5f/49eb/+PXm//v58f/39Ob/8OjQ//Do0P/w6ND/i6Ti/0t57v9Lee7/S3nu/0t57v9Lee7/S3nu/0t57v9Lee7/S3nu/0t57v9Lee7/S3nu/0t57v9Lee7/S3nu/0t57v9Lee7/S3nu/0t57v9Lee7/THrt//Do0P/w6ND/8OjQ//Lr1f/49eX/+PXm//j15v/49eb/8ePP/+nPtowAAAAAAAAAAAAAAAAAAAAAAAAAAAAAAAAAAAAAAAAAAAAAAAAAAAAAAAAAAAAAAAAAAAAAAAAAAAAAAAAAAAAAAAAAAAAAAAAAAAAAAAAAAAAAAAAAAAAA6s61rvTq1//49eb/+PXm//r47v//////+vbt//Do0P/w6ND/8OjQ/4Kd5P9Lee7/S3nu/0t57v9Lee7/S3nu/0t57v9Lee7/S3nu/0t57v9Lee7/S3nu/0t57v9Lee7/S3nu/0t57v9Lee7/S3nu/0t57v9Lee7/S3nu/0t57v/q5dD/8OjQ//Do0P/w6ND/9O7a//j15v/49eb/+PXm//j05f/r1rv76NK0IgAAAAAAAAAAAAAAAAAAAAAAAAAAAAAAAAAAAAAAAAAAAAAAAAAAAAAAAAAAAAAAAAAAAAAAAAAAAAAAAAAAAAAAAAAAAAAAAAAAAAAAAAAA7M62KuzWv/349eb/+PXm//j25//+/vz//v79//Lr1v/w6ND/8OjQ//Do0P92leb/S3Pt/0tu6/9LbOv/S27r/0tz7f9Lee7/S3nu/0t57v9Lee7/S3nu/0t57v9Lee7/S3nu/0t57v9Lee7/S3bt/0tv6/9Lbev/S27r/0tx7P9Nd+7/4d7S//Do0P/w6ND/8OjQ//Do0f/28+P/+PXm//j15v/49eb/8+fU/+nOtZgAAAAAAAAAAAAAAAAAAAAAAAAAAAAAAAAAAAAAAAAAAAAAAAAAAAAAAAAAAAAAAAAAAAAAAAAAAAAAAAAAAAAAAAAAAAAAAAAAAAAAAAAAAOnOtZ3z6Nb/+PXm//j15v/8+/T///////bx4v/w6ND/8OjQ//Do0P/Hx9b/XHPm/0tl6f9Sa+r/WHDr/0tl6f9LZen/S2fp/0ty7P9Lee7/S3nu/0t57v9Lee7/S3nu/0t57v9Ld+7/S2vq/0tl6f9LZen/WHDr/1Jr6v9LZen/TGbp/5Wg3v/s5dH/8OjQ//Do0P/w6ND/8uzW//j15v/49eb/+PXm//j05f/r07z55Mm7EwAAAAAAAAAAAAAAAAAAAAAAAAAAAAAAAAAAAAAAAAAAAAAAAAAAAAAAAAAAAAAAAAAAAAAAAAAAAAAAAAAAAAAAAAAAAAAAAOLGqQnq0bnx+PTl//j15v/49uf///7+//z79//w6ND/8OjQ//Do0P+5vdn/Tmfo/42d8f/f4/v////////////t7/3/p7T0/1Jr6v9LZen/S3Ds/0t57v9Lee7/S3nu/0t57v9Ldu3/S2fp/1Ns6v+otfT/7fD9////////////3uP7/4uc8f9LZen/d4ji/+zl0f/w6ND/8OjQ//Do0P/28uL/+PXm//j15v/49eb/8eHN/+nOtmkAAAAAAAAAAAAAAAAAAAAAAAAAAAAAAAAAAAAAAAAAAAAAAAAAAAAAAAAAAAAAAAAAAAAAAAAAAAAAAAAAAAAAAAAAAAAAAADqz7dV8N/L//j15v/49eb/+/nx///////28OH/8OjQ//Do0P/Y1dT/UGno/7bB9v/////////////////////////////////c4fv/VW3q/0tl6f9LdOz/S3nu/0t57v9Lee7/S2nq/1Zv6v/c4fv/////////////////////////////////tcD2/0tl6f+Xod3/8OjQ//Do0P/w6ND/8+3Z//j15v/49eb/+PXm//bw3//pzrXCAAAAAAAAAAAAAAAAAAAAAAAAAAAAAAAAAAAAAAAAAAAAAAAAAAAAAAAAAAAAAAAAAAAAAAAAAAAAAAAAAAAAAOnOtDrqz7Vl6c60mvTq1//49eb/+PXm//39+v/+/fz/8OnR//Do0P/w6ND/h5Xg/42d8f///////////////////////////////////////////7zG9/9LZen/S2rq/0t57v9Lee7/S3Ls/0tl6f++x/f///////////////////////////////////////////+MnfH/UGjp/9/b0//w6ND/8OjQ//Hp0f/49eX/+PXm//j15v/49eb/69W8++rQtG7ozbc5AAAAAAAAAAAAAAAAAAAAAAAAAAAAAAAAAAAAAAAAAAAAAAAAAAAAAAAAAAAAAAAAAAAAAAAAAADrzrfd6s+2/+vQtuH38+P/+PXm//j15///////+vfv//Do0P/w6ND/7OXQ/1Ns6P/f4/v////////////////////////////////////////////+/v//XHPr/0tl6f9Ld+3/S3nu/0tr6/9ddev//v7/////////////////////////////////////////////3uP7/0tl6f+ts9r/8OjQ//Do0P/w6ND/9vLh//j15v/49eb/+PXm/+7ZxP/qz7b/68+13AAAAAAAAAAAAAAAAAAAAAAAAAAAAAAAAAAAAAAAAAAAAAAAAAAAAAAAAAAAAAAAAAAAAAAAAAAA6dC15urPtv/q0rv9+PXm//j15v/6+O3///////bw4v/w6ND/8OjQ/9rW0/9TbOr/////////////////+/v7/3V1df9aWlr/4+Pj/////////////////4OV8P9LZen/S3Pt/0t57v9Laen/hJbw/////////////////+Pj4/9aWlr/dnZ2//v7+/////////////////9Sa+r/kp7f//Do0P/w6ND/8OjQ//Tv3P/49eb/+PXm//j15v/w3sr/6s+2/+nPteUAAAAAAAAAAAAAAAAAAAAAAAAAAAAAAAAAAAAAAAAAAAAAAAAAAAAAAAAAAAAAAAAAAAAAAAAAAOnQtebqz7b/7dbA//j15v/49eb/+/nx///////y69b/8OjQ//Do0P/W1NT/WHDr/////////////////66urv8BAQH/AQEB/2lpaf////////////////+ImvH/S2Xp/0tz7P9Lee7/S2jq/4ia8f////////////////9paWn/AQEB/wEBAf+urq7/////////////////V2/q/46a3//w6ND/8OjQ//Do0P/z7dn/+PXm//j15v/49eb/8ePP/+rPtv/pz7XlAAAAAAAAAAAAAAAAAAAAAAAAAAAAAAAAAAAAAAAAAAAAAAAAAAAAAAAAAAAAAAAAAAAAAAAAAADp0LXm6s+2/+7axP/49eb/+PXm//z68///////8OnR//Do0P/w6ND/6OHR/05o6P/t8P3////////////S0tL/BgYG/wEBAf+SkpL/////////////////aX/t/0tl6f9Lde3/S3nu/0tq6/9rgO3/////////////////kZGR/wEBAf8GBgb/0tLS////////////7e/9/0tl6f+iq9z/8OjQ//Do0P/w6ND/8uzX//j15v/49eb/+PXm//Pm0v/qz7b/6c+15QAAAAAAAAAAAAAAAAAAAAAAAAAAAAAAAAAAAAAAAAAAAAAAAAAAAAAAAAAAAAAAAAAAAAAAAAAA6dC15urPtv/v28X/+PXm//j15v/8+/X//v79//Do0P/w6ND/8OjQ//Do0P91huP/qLX0/////////////////9vb2//FxcX/////////////////2N76/0tl6f9LaOn/S3nu/0t57v9Lb+z/S2Xp/9rf+v/////////////////FxcX/29vb/////////////////6e09P9LZen/09DU//Do0P/w6ND/8OjQ//Ls1f/49eb/+PXm//j15v/z59X/6s+2/+nPteUAAAAAAAAAAAAAAAAAAAAAAAAAAAAAAAAAAAAAAAAAAAAAAAAAAAAAAAAAAAAAAAAAAAAAAAAAAOnQtebqz7b/79vG//j15v/49eb//Pv2//79+//w6ND/8OjQ//Do0P/w6ND/w8TX/1Ns6v/d4vv/////////////////////////////////9ff+/2qA7f9LZen/S3Hs/0t57v9Lee7/S3fu/0tm6v9rge3/9vf+/////////////////////////////////9zh+/9TbOr/fIvh//Do0P/w6ND/8OjQ//Do0P/y7Nb/+PXm//j15v/49eb/8+jW/+rPtv/pz7XlAAAAAAAAAAAAAAAAAAAAAAAAAAAAAAAAAAAAAAAAAAAAAAAAAAAAAAAAAAAAAAAAAAAAAAAAAADp0LXm6s+2/+7bxf/49eb/+PXm//z79f/+/v3/8OjQ//Do0P/w6ND/8OjQ//Do0P+Snt//Vm/q/7/I9//+/v//////////////////2N76/2qA7f9LZen/S2vr/0t57v9Lee7/S3nu/0t57v9Lc+3/S2Xp/2uB7f/a3/r//////////////////v7//73H9/9Wbur/W3Pm/+Da0//w6ND/8OjQ//Do0P/w6ND/8uzX//j15v/49eb/+PXm//Pm1P/qz7b/6c+15QAAAAAAAAAAAAAAAAAAAAAAAAAAAAAAAAAAAAAAAAAAAAAAAAAAAAAAAAAAAAAAAAAAAAAAAAAA6dC15urPtv/u2cP/+PXm//j15v/8+vP///////Do0f/w6ND/8OjQ//Do0P/w6ND/7+fQ/5yl3f9MZen/XXTr/4OV8P+ImfD/aX/t/0tl6f9LZen/S2zq/0t57f9Lee7/S3nu/0t57v9Lee7/S3nu/0pz7P9KZer/S2Xp/2qA7f+ImvH/g5Xw/1106/9LZen/W3Pn/9vX0//w6ND/8OjQ//Do0P/w6ND/8OjQ//Pt2f/49eb/+PXm//j15v/y5tL/6s+2/+nPteUAAAAAAAAAAAAAAAAAAAAAAAAAAAAAAAAAAAAAAAAAAAAAAAAAAAAAAAAAAAAAAAAAAAAAAAAAAOnQtebqz7b/7da///j15v/49eb/+/nv///////z7Nn/8OjQ//Do0P/w6ND/8OjQ//Do0P/w6ND/dZLm/0tu6/9Laer/S2jq/0to6v9Lbev/S3Tt/0t57v9Lee7/S3nu/0t57v9Lee7/S3nu/0t57v9Kee7/SG7s/0lr6/9KZ+r/Smfp/0tn6v9KaOr/SWzr/6Cy3v/w6ND/8OjQ//Do0P/w6ND/8OjQ//Do0P/1793/+PXm//j15v/49eb/8eLO/+rPtv/pz7XlAAAAAAAAAAAAAAAAAAAAAAAAAAAAAAAAAAAAAAAAAAAAAAAAAAAAAAAAAAAAAAAAAAAAAAAAAADpz7ba6s+2/+rTuvz49eb/+PXm//n36v//////9vPl//Do0P/w6ND/8OjQ//Do0P/w6ND/8OjQ/7XA2/9Lee7/S3nu/0t57v9Lee7/S3nu/0t57v9Lee7/S3nu/0t57v9Lee7/S3nu/0t57v9Lee7/S3nu/0hv7P9Ib+z/SG/s/0hv7P9Ib+z/SG/s/0hx6//Jztf/8OjQ//Do0P/w6ND/8OjQ//Do0P/w6ND/9vLi//j15v/49eb/+PXm/+/fyv/qz7b/6c622QAAAAAAAAAAAAAAAAAAAAAAAAAAAAAAAAAAAAAAAAAAAAAAAAAAAAAAAAAAAAAAAAAAAAAAAAAA6tC2MerQtVfpzrXO9/Hh//j15v/49eb//v79//v58//w6ND/8OjQ//Do0P/w6ND/8OjQ//Do0P/N0db/S3nu/0t57v9Lee7/S3nu/0t57v9Lee7/S3nu/0t57v9Lee7/S3nu/0t57v9Lee7/S3nu/0t47f9Ib+z/SG/s/0hv7P9Ib+z/SG/s/0hv7P9Icuz/4NzT//Do0P/w6ND/8OjQ//Do0P/w6ND/8OnS//j15f/49eb/+PXm//j15v/v3Mb/6tC2f+rQtjEAAAAAAAAAAAAAAAAAAAAAAAAAAAAAAAAAAAAAAAAAAAAAAAAAAAAAAAAAAAAAAAAAAAAAAAAAAAAAAAAAAAAA6c61jvPo1v/49eb/+PXm//z79f////7/8enS//Do0P/w6ND/8OjQ//Do0P/w6ND/7+fQ/1yE6/9Lee7/S3nu/0t57v9Lee7/S3nu/0t57v9Lee7/S3nu/0t57v9Lee7/S3nu/0t57v9Ld+7/SG/s/0hv7P9Ib+z/SG/s/0hv7P9Ib+z/Z4nn//Do0P/w6ND/8OjQ//Do0P/w6ND/8OjQ//Pu2v/49eb/+PXm//j15v/49eb/7NO69tratgcAAAAAAAAAAAAAAAAAAAAAAAAAAAAAAAAAAAAAAAAAAAAAAAAAAAAAAAAAAAAAAAAAAAAAAAAAAAAAAAAAAAAAAAAAAOnNtEjv3Mf/+PXm//j15v/6+Oz///////fz5v/w6ND/8OjQ//Do0P/w6ND/8OjQ//Do0P+UquH/S3nu/0t57v9Lee7/THru/12I8P9Wg+//S3nu/0t57v9Lee7/S3nu/0t57v9Lee7/Snbu/0hv7P9Ib+z/SG/s/0hv7P9Ib+z/SHDs/6Cx3v/w6ND/8OjQ//Do0P/w6ND/8OjQ//Do0P/28+P/+PXm//j15v/49eb/9e3c/+nOtbQAAAAAAAAAAAAAAAAAAAAAAAAAAAAAAAAAAAAAAAAAAAAAAAAAAAAAAAAAAAAAAAAAAAAAAAAAAAAAAAAAAAAAAAAAAAAAAAD/v78E7NG46Pf04//49eb/+PXm//79+v/+/fv/8OnR//Do0P/w6ND/8OjQ//Do0P/w6ND/4t/T/1R/7P9Lee7/S3nu/2iR8f+HrPX/h6v0/1aD7/9Lee7/S3nu/0t57v9Lee7/S3nu/0p17f9Ib+z/SG/s/0hv7P9Ib+z/SG/s/1Z86v/o4tH/8OjQ//Do0P/w6ND/8OjQ//Do0P/z7Nb/+PXm//j15v/49eb/+PXm//Dfyv/rzrVaAAAAAAAAAAAAAAAAAAAAAAAAAAAAAAAAAAAAAAAAAAAAAAAAAAAAAAAAAAAAAAAAAAAAAAAAAAAAAAAAAAAAAAAAAAAAAAAAAAAAAOrPtYvz5tP/+PXm//j15v/6+O3///////j16P/w6ND/8OjQ//Do0P/w6ND/8OjQ//Do0P+rut3/S3nu/0t57v9vl/L/h6z1/4es9f9ch+//S3nu/0t57v9Lee7/S3nu/0t57v9Jcuz/SG/s/0hv7P9Ib+z/SG/s/0hw6/+0v9r/8OjQ//Do0P/w6ND/8OjQ//Do0P/w6dD/9/Pj//j15v/49eb/+PXm//fz5P/r0rnw5cyyCgAAAAAAAAAAAAAAAAAAAAAAAAAAAAAAAAAAAAAAAAAAAAAAAAAAAAAAAAAAAAAAAAAAAAAAAAAAAAAAAAAAAAAAAAAAAAAAAAAAAADs0bYc69S8+vj05f/49eb/+PXm//38+P////7/8+zZ//Do0P/w6ND/8OjQ//Do0P/w6ND/8OjQ/46n4v9Lee7/UH3v/2+X8v9okfH/THru/0t57v9Lee7/S3nu/0t57v9KeO7/SG/r/0hv7P9Ib+z/SG/s/0dw7P+UqeD/8OjQ//Do0P/w6ND/8OjQ//Do0P/w6ND/9O/b//j15v/49eb/+PXm//j15v/x5ND/6c61gwAAAAAAAAAAAAAAAAAAAAAAAAAAAAAAAAAAAAAAAAAAAAAAAAAAAAAAAAAAAAAAAAAAAAAAAAAAAAAAAAAAAAAAAAAAAAAAAAAAAAAAAAAAAAAAAOnOtZnz5tP/+PXm//j15v/59uj//v79//38+f/x6dP/8OjQ//Do0P/w6ND/8OjQ//Do0P/v59D/nrHf/0t57v9Lee7/S3nu/0t57v9Lee7/S3nu/0t57v9Lee7/SHLt/0hv7P9Ib+z/SG/s/0lx6/+UqeD/7+fQ//Do0P/w6ND/8OjQ//Do0P/w6ND/8uvW//j15f/49eb/+PXm//j15v/38+P/69G68+XMshQAAAAAAAAAAAAAAAAAAAAAAAAAAAAAAAAAAAAAAAAAAAAAAAAAAAAAAAAAAAAAAAAAAAAAAAAAAAAAAAAAAAAAAAAAAAAAAAAAAAAAAAAAAAAAAADkybsT7NG57ffy4v/49eb/+PXm//r47P////7//Pv2//Dp0f/w6ND/8OjQ//Do0P/w6ND/8OjQ//Do0P+7xNr/YYjq/0t57v9Lee7/S3nu/0t57v9Lee7/SXXt/0hv7P9Ib+z/SG/r/1+B6v+9xtr/8OjQ//Do0P/w6ND/8OjQ//Do0P/w6ND/8urU//f05f/49eb/+PXm//j15v/49eb/8ODK/+rQtXIAAAAAAAAAAAAAAAAAAAAAAAAAAAAAAAAAAAAAAAAAAAAAAAAAAAAAAAAAAAAAAAAAAAAAAAAAAAAAAAAAAAAAAAAAAAAAAAAAAAAAAAAAAAAAAAAAAAAAAAAAAOrPtWXv3Mf/+PXm//j15v/49eb/+vjv///////8+/b/8enT//Do0P/w6ND/8OjQ//Do0P/w6ND/8OjQ/+zm0f+yv9z/fJrl/1F97f9KeO7/SXPt/0hv7P9Odev/d5Pj/7G92//t5tH/8OjQ//Do0P/w6ND/8OjQ//Do0P/w6ND/8urU//j05P/49eb/+PXm//j15v/49eb/9eva/+vPttD/v78EAAAAAAAAAAAAAAAAAAAAAAAAAAAAAAAAAAAAAAAAAAAAAAAAAAAAAAAAAAAAAAAAAAAAAAAAAAAAAAAAAAAAAAAAAAAAAAAAAAAAAAAAAAAAAAAAAAAAAAAAAAAAAAAA6c+1pvLl0v/49eb/+PXm//j15v/6+O/////+//39+f/07dn/8OjQ//Do0P/w6ND/8OjQ//Do0P/w6ND/8OjQ//Do0P/w6ND/4d7S/9XU1v/j4NL/8OjQ//Do0P/w6ND/8OjQ//Do0P/w6ND/8OjQ//Do0P/w6ND/8+zX//f15P/49eb/+PXm//j15v/49eb/9/Li/+zUu/XszbQpAAAAAAAAAAAAAAAAAAAAAAAAAAAAAAAAAAAAAAAAAAAAAAAAAAAAAAAAAAAAAAAAAAAAAAAAAAAAAAAAAAAAAAAAAAAAAAAAAAAAAAAAAAAAAAAAAAAAAAAAAAAAAAAAAAAAAO/PrxDp0LfX9OrY//j15v/49eb/+PXm//r47P/+/v3////+//j16v/w6ND/8OjQ//Do0P/w6ND/8OjQ//Do0P/w6ND/8OjQ//Do0P/w6ND/8OjQ//Do0P/w6ND/8OjQ//Do0P/w6ND/8OjQ//Do0P/x6NL/9e/c//j15v/49eb/+PXm//j15v/49eb/9/Pk/+zXwf3qz7RWAAAAAAAAAAAAAAAAAAAAAAAAAAAAAAAAAAAAAAAAAAAAAAAAAAAAAAAAAAAAAAAAAAAAAAAAAAAAAAAAAAAAAAAAAAAAAAAAAAAAAAAAAAAAAAAAAAAAAAAAAAAAAAAAAAAAAAAAAAAAAAAA7NG2HOrRueL169r/+PXm//j15v/49eb/+fbo//389/////7/9vLg//Pt2f/x6dL/8OjQ//Do0P/w6ND/8OjQ//Do0P/w6ND/8OjQ//Do0P/w6ND/8OjQ//Do0P/w6ND/8OjQ//Hp0f/z7tn/+PTk//j15v/49eb/+PXm//j15v/49eb/9/Pk/+7Zw//q0LVyAAAAAAAAAAAAAAAAAAAAAAAAAAAAAAAAAAAAAAAAAAAAAAAAAAAAAAAAAAAAAAAAAAAAAAAAAAAAAAAAAAAAAAAAAAAAAAAAAAAAAAAAAAAAAAAAAAAAAAAAAAAAAAAAAAAAAAAAAAAAAAAAAAAAAAAAAADqzrMl69K23/Pp1//49eb/+PXm//j15v/49eb/+PXn//n36v///////fz3//Ls2P/w6dL/8OjQ//Do0P/w6ND/8OjQ//Do0P/w6ND/8OjQ//Do0P/w6NH/8uvV//Xv3f/49OT/+PXm//j15v/49eb/+PXm//j15v/49eb/9/Pj/+zXwP7pzrZ0AAAAAAAAAAAAAAAAAAAAAAAAAAAAAAAAAAAAAAAAAAAAAAAAAAAAAAAAAAAAAAAAAAAAAAAAAAAAAAAAAAAAAAAAAAAAAAAAAAAAAAAAAAAAAAAAAAAAAAAAAAAAAAAAAAAAAAAAAAAAAAAAAAAAAAAAAAAAAAAAAAAAAOvNuhrpzrXN8eDM//j05f/49eb/+PXm//j15v/59un//v78//z79f/49eb/+PXm//fz4//18d//9PDc//Tu2//07tr/9O/c//Xw3v/28uH/9/Tl//j15v/49eb/+PXm//j15v/49eb/+PXm//j15v/49eb/9e3c/+zUvfjoz7ZcAAAAAAAAAAAAAAAAAAAAAAAAAAAAAAAAAAAAAAAAAAAAAAAAAAAAAAAAAAAAAAAAAAAAAAAAAAAAAAAAAAAAAAAAAAAAAAAAAAAAAAAAAAAAAAAAAAAAAAAAAAAAAAAAAAAAAAAAAAAAAAAAAAAAAAAAAAAAAAAAAAAAAAAAAAAAAAAA2tq2B+nPtZHt2MH/9e/e//j15v/49eb/+PXm//j15v/49eb/+PXm//j15v/49eb/+PXm//j15v/49eb/+PXm//j15v/49eb/+PXm//j15v/49eb/+PXm//j15v/49eb/+PXm//j15v/38+X/8eLO/+nRttrpz7QwAAAAAAAAAAAAAAAAAAAAAAAAAAAAAAAAAAAAAAAAAAAAAAAAAAAAAAAAAAAAAAAAAAAAAAAAAAAAAAAAAAAAAAAAAAAAAAAAAAAAAAAAAAAAAAAAAAAAAAAAAAAAAAAAAAAAAAAAAAAAAAAAAAAAAAAAAAAAAAAAAAAAAAAAAAAAAAAAAAAAAAAAAAAAAAAA68+3QOnQt9bw4Mv/9/Hi//j15v/49eb/+PXm//j15v/49eb/+PXm//j15v/49eb/+PXm//j15v/49eb/+PXm//j15v/49eb/+PXm//j15v/49eb/+PXm//j05f/z59b/69W7++nPtZHp1L8MAAAAAAAAAAAAAAAAAAAAAAAAAAAAAAAAAAAAAAAAAAAAAAAAAAAAAAAAAAAAAAAAAAAAAAAAAAAAAAAAAAAAAAAAAAAAAAAAAAAAAAAAAAAAAAAAAAAAAAAAAAAAAAAAAAAAAAAAAAAAAAAAAAAAAAAAAAAAAAAAAAAAAAAAAAAAAAAAAAAAAAAAAAAAAAAAAAAAAAAAAAD/1KoG6c62aurRt+Dv3cj/9eva//j15v/49eb/+PXm//j15v/49eb/+PXm//j15v/49eb/+PXm//j15v/49eb/+PXm//j15v/49eb/9/Hh//Lk0P/r1bv76c61nenNuCQAAAAAAAAAAAAAAAAAAAAAAAAAAAAAAAAAAAAAAAAAAAAAAAAAAAAAAAAAAAAAAAAAAAAAAAAAAAAAAAAAAAAAAAAAAAAAAAAAAAAAAAAAAAAAAAAAAAAAAAAAAAAAAAAAAAAAAAAAAAAAAAAAAAAAAAAAAAAAAAAAAAAAAAAAAAAAAAAAAAAAAAAAAAAAAAAAAAAAAAAAAAAAAAAAAAAAAAAAAAAAAAD/zMwF6dC3UurPtrDq07v6793I//Pn1P/17dz/9/Tj//j15v/49eb/+PXm//j15v/49OX/9vDf//Tq2P/x4c3/7djB/+rQttfqzrV67NG2HAAAAAAAAAAAAAAAAAAAAAAAAAAAAAAAAAAAAAAAAAAAAAAAAAAAAAAAAAAAAAAAAAAAAAAAAAAAAAAAAAAAAAAAAAAAAAAAAAAAAAAAAAAAAAAAAAAAAAAAAAAAAAAAAAAAAAAAAAAAAAAAAAAAAAAAAAAAAAAAAAAAAAAAAAAAAAAAAAAAAAAAAAAAAAAAAAAAAAAAAAAAAAAAAAAAAAAAAAAAAAAAAAAAAAAAAAAAAAAAAAAAAAAAAAAA59C5C+nQt0fpzrWE6s61rurOtdTr0bjs69K69+vTvP3q0bnv6dC34enOtr7pzrWY6s62Y+fQuSEAAAAAAAAAAAAAAAAAAAAAAAAAAAAAAAAAAAAAAAAAAAAAAAAAAAAAAAAAAAAAAAAAAAAAAAAAAAAAAAAAAAAAAAAAAAAAAAAAAAAAAAAAAAAAAAAAAAAAAAAAAAAAAAAAAAAA///8AcAf/////+BAgAf/////8ACAB/////+AAAAB/////8AAAAP//////AAAH//////8AAA///////wAAD///////AAAP//////8AAA///////wAAD///////AAAP//////8AAAf//////wAAB//////8AAAD/////8AAAAA/////8AAAAP/////+AAAH//////4AAAf//////AAAA//////wAAAA/////+AAAAB/////wAAAAB////+AAAAAD////wAAAAAP///+AAAAAAf///wAAAAAA////AAAAAAB///4AAAAAAH///gAAAAAAP//8AAAAAAA///wAAAAAAB//+AAAAAAAH//4AAAAAAAf/+AAAAAAAAf/4AAAAAAAB//gAAAAAAAH/+AAAAAAAAf/4AAAAAAAB//gAAAAAAAH/+AAAAAAAAf/4AAAAAAAB//gAAAAAAAH/+AAAAAAAAf/4AAAAAAAB//gAAAAAAAH//gAAAAAAA//+AAAAAAAH//4AAAAAAAf//wAAAAAAB///AAAAAAAP//+AAAAAAA///4AAAAAAH///wAAAAAAf///gAAAAAD///+AAAAAAf///8AAAAAD////4AAAAAf////wAAAAD/////gAAAAf/////gAAAD//////AAAA///////AAAP///////gAH///8=;" vertex="1" parent="1">
          <mxGeometry x="647" y="536" width="56" height="56" as="geometry" />
        </mxCell>
        <mxCell id="qPDrxui3yycS4Ta56Oi9-20" value="&lt;div&gt;ArgoCD&lt;/div&gt;" style="text;html=1;align=center;verticalAlign=middle;resizable=0;points=[];autosize=1;strokeColor=none;fillColor=none;" vertex="1" parent="1">
          <mxGeometry x="640" y="592" width="70" height="30" as="geometry" />
        </mxCell>
        <mxCell id="qPDrxui3yycS4Ta56Oi9-21" value="" style="sketch=0;points=[[0,0,0],[0.25,0,0],[0.5,0,0],[0.75,0,0],[1,0,0],[0,1,0],[0.25,1,0],[0.5,1,0],[0.75,1,0],[1,1,0],[0,0.25,0],[0,0.5,0],[0,0.75,0],[1,0.25,0],[1,0.5,0],[1,0.75,0]];outlineConnect=0;fontColor=#232F3E;fillColor=#ED7100;strokeColor=#ffffff;dashed=0;verticalLabelPosition=bottom;verticalAlign=top;align=center;html=1;fontSize=12;fontStyle=0;aspect=fixed;shape=mxgraph.aws4.resourceIcon;resIcon=mxgraph.aws4.eks;" vertex="1" parent="1">
          <mxGeometry x="460" y="536" width="56" height="56" as="geometry" />
        </mxCell>
        <mxCell id="qPDrxui3yycS4Ta56Oi9-24" value="" style="endArrow=classic;html=1;rounded=0;" edge="1" parent="1">
          <mxGeometry width="50" height="50" relative="1" as="geometry">
            <mxPoint x="677.5" y="530" as="sourcePoint" />
            <mxPoint x="677.5" y="410" as="targetPoint" />
          </mxGeometry>
        </mxCell>
        <mxCell id="qPDrxui3yycS4Ta56Oi9-25" value="Sync" style="text;html=1;align=center;verticalAlign=middle;resizable=0;points=[];autosize=1;strokeColor=none;fillColor=none;" vertex="1" parent="1">
          <mxGeometry x="685" y="460" width="50" height="30" as="geometry" />
        </mxCell>
        <mxCell id="qPDrxui3yycS4Ta56Oi9-28" value="" style="endArrow=classic;html=1;rounded=0;" edge="1" parent="1">
          <mxGeometry width="50" height="50" relative="1" as="geometry">
            <mxPoint x="639" y="564.5" as="sourcePoint" />
            <mxPoint x="535" y="565" as="targetPoint" />
          </mxGeometry>
        </mxCell>
        <mxCell id="qPDrxui3yycS4Ta56Oi9-30" value="Sync" style="text;html=1;align=center;verticalAlign=middle;resizable=0;points=[];autosize=1;strokeColor=none;fillColor=none;" vertex="1" parent="1">
          <mxGeometry x="558" y="536" width="50" height="30" as="geometry" />
        </mxCell>
        <mxCell id="qPDrxui3yycS4Ta56Oi9-31" value="&lt;div&gt;AWS EKS&lt;/div&gt;" style="text;html=1;align=center;verticalAlign=middle;resizable=0;points=[];autosize=1;strokeColor=none;fillColor=none;" vertex="1" parent="1">
          <mxGeometry x="448" y="592" width="80" height="30" as="geometry" />
        </mxCell>
        <mxCell id="qPDrxui3yycS4Ta56Oi9-32" value="" style="verticalLabelPosition=bottom;html=1;verticalAlign=top;align=center;strokeColor=none;fillColor=#00BEF2;shape=mxgraph.azure.git_repository;" vertex="1" parent="1">
          <mxGeometry x="277" y="242" width="56" height="56" as="geometry" />
        </mxCell>
        <mxCell id="qPDrxui3yycS4Ta56Oi9-33" value="" style="shape=image;verticalLabelPosition=bottom;labelBackgroundColor=default;verticalAlign=top;aspect=fixed;imageAspect=0;image=data:image/png,iVBORw0KGgoAAAANSUhEUgAAAgAAAAIACAMAAADDpiTIAAADAFBMVEVMaXEeiP8fiP8Ziv8gh/8eif8eif8gif8gh/8VpP8djP8XiP8ah/8eiP8Ai/8kkP8gh/9MaXEgh/8eiP8ggf8biP8eh/8eiP8eiP8fif8fh/8giP8fif8fh/8giP8fiP8eh/8eh/8giP8eiP8eh/8eh/8fiP8gif8giP8gif8giP8eiP8fiP8fif8giP8iif8eif8dh/8eiP8eiP8fif8cj/8eiP8fiP8giP8eh/8eiP8fiP8eif8eif8eh/8fiP8giP8giP8eiP8eh/8ciP8fh/8Ugf8eiP8eh/8eiP8cif8gif8eif8eh/8gif8eiP8eif8eiP8eh/8eif8eiP8cj/8eh/8Sgf8eh/8eiP8eif8gif8gj/8gif8eif8eiP8eif8ei/8ah/8eif8eiP8eif8eiP8eif8giP8gif8gif8cif8Uif98vf8eh/8diP8gh/8eif8gif8fiP8gif8gh/8eif8eif8eiP8eif94uP8eh/8ci/8gh/8eh/8eh/8gif8eif8cif8gi/95uv8gh/8ah/8eh/8eh/8gif8giP8gif8chf8gh/96uv8eh/94uP94uP94uP8eh/8eh/8eif8gh/8eif94uP8eif8gh/8gh/8gh/8ci/94uf93xP96uv94uP8eh/94uf8eif8chf8gif8ch/8gif94uP8gif8gh/8gh/93uf94t/95u/94u/90u/8eh/8gif94uf94uf94uf93uf8eh/94uP8eh/8gif8gif94uf8eif94uP8gif8eh/8eif94uf8eif94uf8gif94uf94uP94uf93uf94uf94uP8ch/94uP94t/94uP94uP8eh/93uf94uP93u/8gi/8eh/94uf94uf94uf94vf94uP94uf94uf95uf8gif8gif94t/8eh/94uf94t/94uf94t/93uP8eif94uf94uf94uf94t/92t/95uP94uf94uf8gh/94uP+B1f96vf93uP95uP92uf96uf94uf90tf9mzf8gif94uf8eif/0vNazAAAA/XRSTlMAUhgUQFb9qasCHgocKgQFqQD3aggWLjpLXpbZ3LHRt/P9ua1U74+wYPOZfCi/cA4yT5JyvAhiw4m8NkiWnvWzoMlC+zTkDGTVpizv7RDgjfecx4TNEoQO7aPVzxBY5XfrIBLFXMta9cHn8RoMC91GWKvHZunh435BRP3FIus4evnfPjAw8SZubKFoJiyRD3Ry8Pfb51TLterX+el2JMAIH+YiK2wagSSH8/uB12DfGSgUMDiDVUdNSqTPblDhPKp+h4ucetand4+xP2W5PLzMxom1OXsjPos1bK0SUe2fW054lJvPmZfZHHRo2375JkK1ySDUBhY8WW5EfBgEXagLGgAAAAlwSFlzAAALEwAACxMBAJqcGAAAIABJREFUeNrtfQlMVcf+/wA26WURHquAAheNGkBQECgQUYtSjEGiVQE1blGDGhEliFxcEhU31IoLMUCsS4w2VNtnN419GtL8avtqq10MrbVWbX02rXZ51tfX9++5+Qc37vKdc+acMzPnHJzPz9efr+/eme+d7+fMmfmuCDFE5nqftuditvRPrIjruzBBCp09Ydqk4YPKk0pqo6MikEBPxtCs9IpWSQ4J87ek9ioVK9XjEHB206jpEikq+6/NE5tBj0HmsJgiST1m9s/yE4tneSwO+0zSjvrkILGEFkZaVo5d0om4tsViIa2JdwdJdFBRHS5W02rwu1Ej0UNZySGxpFZCVLlEGzk+YlktgvCsyRILTGibIRbX/CieWiYxQ9K/xQKb/OlvGy+xREtJsVhk88I2eIXEGotmiSuBWbGuSOKBmnk2sdYmxMZ4iRem54rlNhvSYiSeWBYoltxUqGqV+CLhjHgPmAdHEiX+mL9NLLxJsDVfMgS1YulN8fbvJxmFbHESMB4fL5SMw6JhQgEGo12b5voOf3ZiSW1q9Lu9+iwIu/FcUkh8c6g247BQgZEIUH33X10/Yta7Kb2hwQLrwrbH16iNIFku4saMw6FYVbqqHBGt7MwpPPXc6AI1o+4ZKhRhEJY2qNjzk+b5km8seR2TVFBgnlCFIUglflCLao+qv1xk5RCPf0wYhfjDNoI0jqNjvcYpIjbXE54IPssUCuF9+68gC+ZLj9I1jf+saWTuIV+hEq6YEkeilrEZAfqnOpVN5CMWNiGe8CU5/sdmBdOZ7Y2RBG+CmUeFWrjh3wQh3/P3UjyZBZUrHwhXRwrFcMJGZd9vaxXlOVOUzxwNwiDAB4F7lFRRUFJIf9oFik6H1Y1CORzgV6mY0pnCZOLS7UrvgZniJMgepUqRn63sDHORo5WMzeI2yBqZ8xV0EJPGcvoshayTojShIqawKbj/ZtexvoAuV4gRCRZKYgmFpM9s9oVdbFPljQL9hJIYotYMQXp18rfQEqEmZlgqf/qL4iRGhLxx+F2hKEZYLJv4mTiX30kkWe5C2OAvVMVm2ZtlT/9cZcmTiyCcLg6CTHBMZs3tbZyFGSp3H9wulMUAvWRO3y17uYtzSM4hlSfURf/ktRq/3vnrDBDITyZUZPwRoTDaBwCZk3erMY7YQhkH4WgRJUgZMgkgZauMEmokXqgOoTK6Zy78AaDBuECMTBnnkAgOoAq8C7BljYFipeFD0+LES4AiNuHvf30MFcx3JlayDKE2ejeABOwyRxss2kasdTJfdByghhCs/ttJh8hNbW9P7cOg+PsafB0hoThKqMOucX8y5bclPtlCZibSDhddgJWuTqiOCnpjgwAnEMR+2gZ7muxq2uiG7WBz1Cp7C+XRQDL2ESMo19fnVej1nE6z4Gv4qzj51grlUUAg1vGWqvjdUtzpYfUCihIG4YpUhYooYQqYiNP/SMWvRspEkCdS9Npn4SaZKNSnG3Nwi7tCsXq/j2zZn9Ab9IQch5tExIboxiicBWiM0jevK+VxxFEz12ZOEDWkeG8ALyp98yRBAvH2AEpinhRbAOcTQI3SF9MqCQggjT1FSc4YU0Sq9TxEFGgNvR1JWvebjsU2DWMSDhUdRnRhKkZt8UpfjCav9hnG9CaQLJSox8aCCb1smaPwRZuaroHLqWQTY2KWW0WIsA6EafUBDVBX7rOdgqxDMWNnCTVqR1/MCVCxb1OOyoKvsRTCSpPgoacJNWpGndYggED1VZ8n6vYQRWBGfkMoUiuexWwAitFWWzXU/dZfVigdHniUUCTlR2qr4jdDNJV+j9fpu8HsO6Gi46xGrMUUgVA+V2tsIJiQqi+SExMZcEaoUhsqNUdbam4B0rxej8CNmJKFQpWasB6TdhXOkABSQaeeus+YV48IC6BpBSQJs4EzSMgoUKMjlG8bPGSbUKYWwMa8hDStBFiwlrAt0DjtXWDgDmbNQpn0LGvfIa0EGIDmDCFjQJlm691S8Q5g/QZYp5kAzyCE5s0mo0DFHG1C21o1Ri8KeGEyHAiGdBEAFY8iY0BosjYnzkBwtByhTtWYi2nPo5MACJ0lbDVWpKlH/Bj4bhEgFKoWGP96im4CoOD2FiIG2DVVnd0NjiU6jKpGfziOE+knAEJHyRoOSTN91MtdK4JD6QC+tb9EhQDKRZ+f5B6oLv+9CnY3C4WqRBC8K0dQIgDyG0fGgIbNat0DcDXpuUKl6lCty6quTACEehFGjc3fpk5y2IV1XahUHeDbWidFAqDMY2StQVs6VLkHonTcXgSeAL6r9aFJAIS2zSfbBCp7qbEFgQbnCqFSVZgCa6JUDwEGAB8MSyCjwCgV4f2JYMEYoVNVWAmqYTKiuwN0VXlaRsaA2eSdiOB6BqKjmCqk6uvFQE4AhE6tIKPAENI0v7Pg132EUtVghD57mhoCoIASssNgfhvZjRA+BLQLpaoBmGZjD2BCAIQip5NtAqMXE80OJiUMEkpVA/AhqkS6CDBA7pWTTxYosJJk9ueELVAv4ADrRMRoB0AIHSHLJi4gqS0EGrEKhFZV4GNw9dMZEgChZxYSUWCz8uzrRKkIvYCTuzcxJQBKS7eTOImVwwQWaw9lEngIuDvAUnZngIfIJUkoWaEcJZBgxqrGlsIWcOkPsSYAQrMIAoeV30TgpaJWqJUciTqPUZpeAQ/gn6j8ElDsULFMVAvSCTAg9FUeBECoqlUxSkRpiA7oWyFCreQAXfVD+BAApSUpHAbtSmH+Z6BvDRdqJQd4iurHiQAInX1VngFTtVxipgu16lRgOTcCoOBk2cNgkcLXfTRVNhRQUGCMzu8PUCNBo2wWmcJ9BCxtkyDUqlOBnfx2gAf7uEyr0sHyX4XbyGQKvepTYDJfAiC/LVgCKAQmRIJf8hV61afAVM4EQGglrt7wZwrGBPBLQUKv+hSYxZ0AKPNFOItskvzX5gpnAAsCVOn8/gAtkqTUa7kGiPxAnSjQ6U2htQMgtFELATJFVKBOgLfwMP4ECD8GvwLq5b8GFzg8JfRKjAadpZYovQLycNljCkZJuM2J6CNJjjKdcbVUdgDfZ+leAz8WeiXGTF1ZAXQIkCqTNKSQJQKnB+YKvRKjSGeRBf2vgNw4OVPwv+W/vFTYAXQCPHqP47cDlMqHByrdAvcKS6BOjGThDibfAQYoBAgrtayDY1qFWslRrrPmsq4dwF+p3Yj9iMIIN8Aax0Kt5Bio05+qZweoVQwKVMzyGiFSg3TiJXDhIzgQYB1BFUHFjrPZ0LeyhVrJUaXzIq31FTB3C0FigPJtZLbOgCaBj3W6AzUSoHoRgf7HKnaAmSGJ/HCdgG2pHWwJkDKaqH5olLINQUsUkYCyBvuzPAOEd5DVCCDwSCwQ4QBsTIFFDAlwirBqIElYUrvoGaAbsB8mnBUBFvcnLCJPFNQBDtYglKoGcLeIlboIgD0D2FIJi8XVkJnzyzSEEAiQ3APbmewA8n4fF0wk6wC5TW9WgwCuVnQFgx2gNMZOpv6+awgn3yzpjGcSQMgGFm0qsFEnQNVCwrc/eQsZ+PxyVihVFZbrukqREsCfsHOElKOiwg94BLCLvCB1iJH0VNkgI0BwLWEjwT1qGovDRwCRG6wSsEs9Rw8BPA+BKwm7R0kxpWok36yzwpnAA8DG4JYZ1HaAueWE6o87qU5yuMbMAqFSlQDjQqVqSgSwVRM2DWpQ21E+Ai48PEdoVCVgx+wQHQRweQUE1RM+/u+rDuQ7A9eWEwpVi8GwRhZTIEBAJ6H6a/JoXV9E2zjV8IV1kqH/FbB0Jpn6W46Fqxf7CDzWu0KhqgH385mslwCLBxE+/vUbtUgNtwspEFYAWksprdJFAFsGod9ntcYO8pW6rq8CLoAT7MgcQrgzwBtFhI//xLlUhd4k1EntYarRToDSGEL1x2qO3knXc3QVcAcmRitaKwG2tBLq/4Zmkf3gxiMiIlwTcjGPJ8FX8yXtyNHR2eFF7XFkAt6o0XylatWs/pkDdAgcAJ8w7RFClzTfAQQ5gpO16n9gqR6B4YQmNVWuBVzRiNGSciffcdrUHxepS97g2ZLe8mYCbsiGFzRe8YsZWtSfcEanuNUYk4JQpFZg/AHKtTaCNOg/RG8BBxvmzNIpFKkVmRiznXLvhVi16q/UX8MrDDP0UaFIzcC57RSP6rPUqb9larhuWeeO1/rCEsBiMS5DV6mLsJ8qS0BFCgVZR2EGF+UB9QAXt6X4Xl1Lrv7ZVPJ210ja7VYCWETitKb4zBKfAsqnUJEUl14kssL1Aee9V0wSiiJTf1EUHTlTMeO3ChXqw3qNxTpxSdruyL/Rm46YEQ2ScATz3QIWKebbK/cAjaeWs/8ZZgYRDMpuC1B8CWQq5H3tGUBNSKzlMUsoUDfexy2uUvtGFBwio/6CgYXURBxTgDMv2YT+dGMOVofKN+yt2O/OX09PwhnY8jKiSQgNbMcGbipb7yObYb8P1Wx9bJyxqApCBX64EzZRP+Z5k7zV3zGFpnxnsNvMGKE8tkcsaS2RMWmgW/3H6WfSqEp3Em9iEqqjBLxVj7AV25pZ3yXG5jfEDtleTbttwxHsASD/iNAcJdTh3XhRBouWFqurpKAAGUZiV3lRiqGChePTjEcLtdHDYnxC10wjO7HY+uHtDClCbRRRLZPGk2acWBPxYoni4HSRjV/q0Yal3sr4m+KEDZAu/GWyerNnGCPTVBlLs3gB0MYwmdV+1YhzgG2izqLiAuqwXa6Wyyru4gTHywUZCnUxQLPMipfx7suaJudrLhO9AVggUK6yWz7f4NuIaXJdZUSbaDb4WK6udwHPDLxDK3R2lRHQBNmUP3tnb15ynJLtLjZSKIoZ3pev68XJ+zJQPsU4QOiJ3dG7WXbty/I4yBAoL8NMUQ2CJfz2yDf162BugKuTby45fqNQElNEKiT91fuznV+hymzoGqEi1k9ggUKux9pgdpM/Xyk/eUEfoSDm8FFq8tR3Kau3fz+Fme2iGAwPRCtm/AxiYYnLrFVMOa8WyuGCMOWkv1rqk+ZVKk66VqjGPAyY2VZKcUKbD0GHCeEB5AeSKmANnbQq9GZWExQbsG8VauGINqLk/y00YsCLa4naC0ULpXDFYLL6D/F6s/PGpJP1FhRZgLyRR9j0sSxpnWbroH/yq2ST5K8TCuGONbNJqwDt6dASoTdl83LSCcpOCnUYgMXzySuBxcZcV+WkW9OeraLI5CqhDEMQXC6pQMuQG+uJXga+WSFlagYeWSpUYRS2qiwIW1Z+Zqmct6g0anBnnMoxRRkoIzG0RkNZ6MkhL85blxvZ6O87IxyhtIjAxm1jzvaZNSJ7tfqxJgwVSjAUxfGSkRind/uP3Htj1JD50yr3LJKk/LIVsXGT4ks2L7VOp2FX+cv6zk8MSTp2pg/frJjNxqk/QY/1J21pbSJ+/yoKCTP51UJW/hVDJr7ELVL/6CSD9D9a84M6ZUEMwVEjIbHdpJWmyeQPjV97lo88bUaoP1Sr8ydgnorX1up008UYqZJfSpzHQ6aN/DeBIdpiz3r3GZegcqa+7SZqOaFB/tYOfw6CZfBVf5m2IuCBU7U1tMteYA71a5V/OIdQKf8Qfuq3T9SSkG7L61egecrWDsPzDXXJP/alQuYCrovjpP9YTZWpUit1Tjso11D965W/oYN9Ev/gCRzUv3CzFtEG9KVhdTBuF6Ai/0Tmh5neg/syVn/NVi1R55GUDqmhU43JO6Mlvz2JfTGX6N0M1V/5ghaRfLfQk6DVgMhjmvLPZt9Cx1Y1jZH6i+ZpCS2xVS+iKsVyzpdC2vLXczAU++QwUH/zu5pk2ZhNXZJknvpnIH9nOHuxG7fTpW3oKG39BYKTQ1lsRdxckGzkj+WRQRtQPZ2awNNSNZ5d/FndTDmVoWQmP5+TzBvlDRRkrcjQHPG1ZrXECoN4XAcYyh/CKYzqbIeufaAhZJ6OQrSDJYaYvJj54jGVv5LbaywiWl2IX/ebduDzuiYuYWuRaGVtGGQsv8QzlT434311hsy4Eh+dbWUy2Ycq7WW5ZBzk55xMX0x4N4wbtemsfsdFab3EHgyNKlzkf4EvAxTcha1x8emb8ihdUKZM5uKWYpaQykn+VBMQIK5XF07S9VRFFKkJ+IgvWXtm8IC8XterqjNqR2SrcbkzqknJTf4XjSdAAovrM6k/oijdp9H764W5YctIV3Eqsrb8yca/AugfpouJXJINSXuLZQYJCiM7s8xC1pZ/q+EEyKBuPiVIKg191kfZreybSvAmtvtYXP69RhNgEO15lin+6BVhpOallCRlXayxtvxSncEEyKfsm3pO8cU5WE1V64gOJXt2mb+15U9YbywBKNsjXlAy4Km+vE9JV3KuFVtbfl79NXAEoPoOGCMfOBvaocWJ0zhcfgWHW1z+0TZDCdBCMWA5bazsL12mdbc+FcvHHGCQ/B3GWgLD6M0ha0AvO6XjaC7bpKAg19ry2583lAB9qU2xSTaYT5+1sU7Op7mi0Nryz44wkgDULiKRLTIkf1Hvi85XLjqvv8Xlz7YZSYB+lGaQe9G9S2F8ufDsaIvLn2okASg1epVpJRxKZ5ORuVCV+Vlb/gRfIwlA5Sa4EX+DaqB1SJPR0SiLy19uJAEkGgFq+BCK1duo/YhU/G9YY3H5o4wkQLb+4bPwz08QxV+BX8HY3taW/1WbgQTQX+x5Shknbw2+bdVai8u/yUgCLEzTOfoxbtGv2PqoCcXWlr8hzUAC6D2DpCVwi321Yc11tRaXP9lIAkj6rJHY4+1A+j8kE1cHY3yAteUvCzeSAK16LqIBuAcojkVHa6zF7obF5c8wkgDSZB2/NRkzZj6bCmm4o/TscGvL3xpsJAGkJO0bQBnn5JeRdA2qppE/zFACaE9azmLpooEQgYmz2m1x+WuMJYDmCFtMHG0ou1gnnON2ncXlv24oAaQCbT6PRhaWGYW7VBxFj4CJ5H/WWAJI+ZoM0iWsA00ARGF+QKG15ZdmGEsAKV+L3Ws1oziTo9Xpg0bGhMGm+FH0zjFmkn+rwQSQ7OojK/bCIw3Re1t+EkEzHdqXFsPe20nI2vLPN5oAGt58mFSaPH3iutnm0skfIfUHN3PJn2I4AaQQlRZV+EoTR/WmXOH9iRRae6i55J9qPAGkWFXFOOvgQXSV+A/2cphsJ7WmxKudy2TyN5uAAFKCmuIlcMR7K21LWRSp5tR6hMwmf6kJCCBJk8gzFivpe9GgZ6Pe+2NjqfjvrS4/GwJIUtJcsmFT6EcZ9gNH9K5X2UnDpWE6+UtMQgBpPJlzMgw+RlBfPyBiKhL8XKW62Uwn/2SzEECSdpNkQyRRDm4JxgXMxHh/djeFl6jp5LcXm4YAkhRXnak0LBxNHUn7+QFdcx0ULvDmk3+YiQggSQ3pkRpu0bPprx8UtVhH4ek1n/y1piJAV+ptkg/exTKHqiPdhl8/6HCUWaA71dGE8r9vNgJ0+Yknp8+Dq8YPAz+/mf76Sc+Q7t+qrvAmlH86TwJ8pqIjSkP9iLY+uUGBbuHra8GPasylGSTnp4ROI1PBj6oJbzWh/Pk8CRASzKIqdij95we2zPhITGCw/P48CSCTqaIdcdSfHykffKyD2BDAYPnr+BIAxVBfwBBQgFMDs/dINcPbx2hYP9zdjg0BDJZ/M2cCoBdpLyBUBPtsd/OafnNUr1+VKkO+xeU/xpsAqCqf7gJ6RxXZau2ux8nr6t6fBdhw5UQmBDBY/iTuBEApdJ+kOkWb11Y664cLq7G2/CH8CYBK+9FcwFzl27Z7Dkx/TfsnQmg7EwIYLH+8AQRA6KUCegvoeY0Onun9mcEUnh+cIcDi8o82hABo3WxqC+gZmJkBfShL5/npAWYxIYDB8scaQwA0d6Kd0gLOILF42hfofn5w3nyLy99qEAEQiiqis4AeMwdgPvZwBZ/V/vwgNI8JAQyWP9QwAiBbKo12w5JHmn6jzNOh6/lh1d7VYPnzjSMAQr7LKCygR9fRN7Af9NH3/LB6BRgs/0IjCYDQ0Pd1L6CHNyMS/0l5Z+Qzij+qjQkBDJY/1lgCIHQoKZTqNcpX2ygFBOUKuFwDecs/2WgCkLQ6UmVIWchq/dBALoYgzvJXGE8AhDKfGal9AT3DGju1DEJUn+d9JgQwWP5+ZiBAVwfNrByNhgHPjAL/AjbPD0JsmjwbLP84kxCgq4Bmn04tfdS9QuBj2Dw/CCUwIYDB8g80DwG6EL6yPbFV3a/3qq2QWc9m/SKY6N9o+cPMRYAHmLIyNSl7POnP9652ltasav2eIRTrYzYEMFj+OhMS4LHXOMK/MfKNdb26MRH8Cd5NsNLmM1g/TMnNBb3IYUb5A81LAG/Aca1AS2zyZ6iAvFwh6IdrsVlbfkauAEYEWAWuAVQTJ6CZ+vqhMt3udBPKP91SBEBgOCEYV022ggV7yeeGbbRJFpc/xFoEqCBxpzxEYTa987OMK6ja4vLXWosAcC88uNpgeD3N/RMXE5xrcfmXWosAcKXtHKRpBdWtnx9oqLT3trb8BcHWIsAhcCXsEVpWUM37Exeqp7ZWqOnkz0bWIgCm424bzq44hNbzgxBccTvZ4vK3W40AcK3tItzHg4dQen5wkVrrLS5/L6sR4HmVvwO3gmqfH4yHZo/F5Q+1WY0ANtgjh09vCU6k8fyguS0UrADmk384shoBcNW28VU2eidSeH7Qc/C0fSwu/2brEaBKUm3QGqndf/IYM+AHd1G4teWHTVDmJkAm7Ca2y1Q68XyG1D8/mOI+UDlGS8nPsGkQMwLg4mWWyb143cLsWtV7wOdiolaHWlz+PlYkwEnMvUi2HfHS7vv3KA1da0fAU8ZZXP5WZEUCYCwaSgkOVTldH2qI0VKWFZess9ni8ndakwCbMT9nltIXU97QGP0yHTPjDIvLH2RNAhSHcv49uGbP5RaX/zNkTQLgWi9KsZlMfkoUJl/BnmJt+VV6sk1EAN8WzC+ayOKXpOGi1J+1uPxDkFUJgM+ceJfBL8FWt02xuPwrrUsAX1zyVEIk9R9Si1u/fhaXfzmyLgHQd7hftTCC8u/AF4heb3H586xMAH/sz5oeQPVnREkMNgBTyJ+NrEwA/MYmJdL0cPuX4abJP2Jt+Qu2WZsAmBZeEt3atxGx2FnaLC5/OrI4AXrhg+X696Y0x6Ea7BxFNmvLP7vQ6gRAW2Tyrem8RyOx+6dkH2pt+TGZCJYiwFyZ9PHJNOIc6mSq2sdYXP75yPoEkO3gU/OG7uFvyAzfN8Da8kuRPYEAspVUCjL0jT1DrjdES6S15WcYCciVAJnT5H5kvJ6muLl7OKyfYfIPQj2DAOiobO+ZVs0HnRkxsvXK4i0u/4TCnkIApeLN9Zq2aluWfJGqsWnWlr8lEvUYAuBt6o+wvVT1kJEKKbmhQ60tP5cDADcCKPbxKpuqLoTybH+lnPzrFpd/FOpRBEhTbDrRMoo40sq2d7liSY5Ui8ufaOtZBEBHCEorTzrjRzDSyc6ZykMlWVz++kzUwwiAIonaUMZXzZUfJflVkmH6WVz+uFLU4wiAlkpkiEsfAEdbbAvrX0Y2REWAteXvG4F6IAHQOvIazgsrJs4aFhU5JyITpfk2Dl0X3R4ynfzbjFoscpO/Zg7qkQRAQ6n0nlLEIFbnJ07yT+P4/PMlAIpczWH9ytmdn7nIX1GIeiwBUONM5usXw3K1OMg/DqEeTAAUMZnt8hWksl0u1vJLJahnEwCFj2O5fA11rNeLrfwqC9pakQAIrbUzW77dqzisGEP5F+aip4AAaFg+q+NTGpclYyZ/vR96KgiA5ixnsXz5GbzM52zklzpt6CkhAEIvLKK+fDn+HFeNgfzjfRB6egiAfEfSXb7V0XyXjbb8UnkEeqoIgNAzYyku3wj+b0+q8seuQ+hpIwAKv0HLspodZMTK0ZM/oa03egoJgFBEEo3lqxlg1NrRkV8atRihp5MACG37TO/qtYYZuXr65U8YaKj6jSYAQo0Dx+tYvoqqYGOXT6f8e26UGiy/4QRAKLw6TuPDkx6ETADN8kvLq00gvvEEQAiN2a7ez5qTFYDMAi3y17SvMoXspiAAQra8cjU93ydn+CJTQaX8ZUlRZpHcJAToSsGbV15JtPPn1B5FJgSp/NL0jl4mEts8BHhwsfLprG+RWbsJ48LW25B5oSS/NHvcvAhziWwuAnSh98Y+qTE5K9ydrg2T32+fl1uKLABQfqm1vrw9OsrXfOKajwCPURjh37h+zbrcbat8ZyAL4rH8kY2BfoXmFdO8BBAQBBAQBBAQBBAQBBAQBBAQBBAQBBAQBBAQBBAQBBAQBBAQBBAQBBAQBBAQBBAQBBAQBBAQBBAQBBDoGQQI8AvcuH7Nx5GBAdZc2SV//+HnDZ//5/APS0wtZjmnYtsqcChvU3riBLeY6tjl/Z/bWrfKGpq//PZ/b1444XTBvtuXrnz645+XzSjtRIgAQ4ySprjP1CGhMnkVlZ+1rTGz7r9+5839Thmc+PX85yYTGaxxMN8QUXySiGrp5+esXWdK7f9x7baTAK988sU/TSR1OliyhrsYtl7flalIrmyICTKX8m2/XGtykqPpX4fNIvkxaH1nchYiqHOF6vTqSdGZplH/hg8OOtXit+Mvm0L2l8AHjKsIC+olTUhISjHFEh7/zeHUglduvW4C6eGeiOHc5vfvaNVRYqWf4YnWlz/9Rpv6u+D41fjTwHVwYXm9YVf1l3Si+RkjV+/nD5068dtbBhMgF1xWPmVLp5TQqLJWaVilnb/fclLATx8ZSgBfcFFvcJg5OLVMooMiQ2wDv59vctLBPUNtA6DdZQT7eU/VUCy1OnEu93V75x9Oenjva+MIABpf6lnP6vc+3VrLZVv5Vo7Zca3rDEft/5xNPxpW+Qasdbma9d1jvEQbzY0cF+2Xgw/0//A/FP7pcDh/+9kgAnSCy8l0Nf2HMGkYMZjXkr1889Fz63hX0PrUAAAU7ElEQVS8C3T/Q+vfnY5dx40hQDS4miwr8OYlSGwQwsc2ePj2o2ff0b0LuP03Tf/e4XSeNsRxfBJcy0HsJrzBrulS30gOC3Z1l9Pl+Xd5nGX/neznH//npw1GMEDiawzewrTt2mbmy/XBoy3bXYMABWT/G8wHh/MrAwgwHVxJRg3MIpolthjIdrHu//bo5AZpUM1DD5Gj6x8f8CfAdnAh1zKZ62iNxBpMW8ce3vf45Can0O6DHf6h93z/P/nOLe4EGABb11hMlcKj+XIIuxv1hqYnmlPSP8lnYHKc420RmAKvI4Pz1NDxEg8MYtWB5/NXXJ5UZf3LPvTgDvDwz4d/cWbANLiNIfV5osivfwsrJs4aFhU5JyITpfk2Dl0XPTWkmbxf5xA218G3d7k+3LL6P7j/vfNXP99w4P4StOO1nzf88u2b5y7eVdwBHv+L/ZxDRZ6TuEQF1RFqMC7GZwo4QFBYyGyyIUYyMf67varx+/q9m1dhy/7hr87tg3cIT178ypcAveBVpNyIeyiR/uPnFcuOsi05lqgNI4P93+2wjtsBLnwr79Y5fOe29zvA+05wmi8D4K15C9U5Ahcqq61+K0n/xzElMw24DV5ugu98rrr77av7JCfJDw4q3xdvciUA7JkroFncPk0x4rsghDgMyVY1XZEBlCMadpzAaKz7r+eIA33/9sf3MveFh7vAeZ4E8GF+o7ZVKOgrNEld7+c8pQGlLJor9NclJ2DAf7J9Ox13bx1Qd6Dc724x8N4Fjhv/DpDotTScqKCtZwPVnymVDgNnKS7QOdDa1/2PKz+oHvLP225HCu8L4n84EmAcvITptMZ/QV5V0zS10OqdKt/DfSG9KKGd3RryMuE6HRpDun7f2eRqM/S+SnKMEsqDl7CF0ikgRS7dT1qtOZjH7ztZx+JwagbAu06ZHaDpR62Gm/u3XLTvvQt8wnELwCTmJFEZPLxIVk16umitlDUMtNFZnCUnHJgd4IHVRs+D+s99+B3AwfMgOBVeQftQ1gcAe60+y3eE3GGwgI5L80NX/5/Hg+q48zddY9/fj3Modw3+JTcCHMJ16KQwdpVc72/9eb7tMsOvoNFu7COH50m9W0/79Gf2vIlzFzuczn/s4MaAeMwSbtI9coSMB2AajSaKeTInDArvsB92ub+nXXeAe/cpyP/2Xbw7iZ9v+HlcHrZuFYXIWP7otNMbir8N2PX7NC/gT+qX6MTwfdmEdyzwyyKfjPOtsrlgPLj805I9ZSx2Dt2lLt7C3tUdv/5OSf6fD+IiSpwXuRHgGdwS6su8y6xhuT0/hm8RK4PgkoPd4dseCqK4Pd+/jQkUc/AzCNp244y0ujKFO9k//w8YgPUPzU7TNfBNbMznFZryv3YQF1O4j9s5EHtYj9VRpi2FvZXmIYKw5wBd5swN2IBOylaaw7hzAEe/IHYbHaV9TGwGYBztoJ1c3F3A7q9j1Cu449k92kE7X97FxRYf4EUAH+zTGq11yI3YXE5ffjvYd9rHfB0T0evcd5+6/G85MQaB97htAVijWsFSjSOW455KFnXeknDSayfbOYxOHL8wkP8WJpz07mu8CJBSgPXWa3LXoUCcryaZhfiZRbRPAZdxu/IdFvK/fA+OEeJ4CtiOr8un6SqAcwIwKkS6qgHj1PTTOOBpzLlsPxv5L78Ch4ze/TsvAhTig+1aD6kf7ghmrLGsynngTjHPad4AwLB+Zo76tzBRgp9y2wKG4c12e9RXDEjGDHWdmfzLMAUFSzWN9iYml+cdZvKfg/PIdvHzCclUbVut2qxew8UC4HboCKVpzTwI5Po4HSzjNA7chU+d/OqI+cpEWTWoPAnWYcZhWd4T4xvO1jLW29DTz/hefgeOOb/EjQByvhspP0/VUJhAw+0sxQ/eA086R6cRyEUbTPO3fz8IZ50f4MeA7XIxVqkqBirGjOHHVPxqeNJ29SN9fRcMAbnLNlTzR6B+jMPpfJMfAZBszkUieXhAGHMfIIRwuPJwjfqR/gvn+TIO0Xh5H7gDnOBIgEDZYOvVxEZBuBKY/d+Mxa+F5X5e9UD7wSsZc8v8He/KIV1/+4UjA5bKB/GnkzkHC9nElyjCL5/OxrMDTun/kLX8970zxrr+wrVuSK08A2YSbQIY38zHzKWPAefdrXaYq7AfkH26zi3vGjNdFaV5EkAujO/hY0yQMwb7gV5lL3wQLLPa2Mb3QP3fZi//Ye+k8a7/u8+TALYcpV4dGYrR/A2GVSGPA2eep3KUfWA1Fx6pGt+DxqBvuW4BAUVKube7o+UpEAUfAX05CN8mUah/vgFO4efhmT0PeqCucSUAiqhU7tOQJVeL6Qb4nQou1xjQCT1B4yXQbTvez0P+H8AQtBN8CYACCdp41VRnqjwCvIA9u1cPLI+PLx/4whRFyU6ujQnJGTRxKt4sCb/A1N0/r3kbY7jZ5PeDQagHODOgkaSXU0LSG6pexJiTWJWLzSBngJxUabXdW1PDd5hWshkUDgHfg48hn9icneDc3yLeDCBr6FKUAdl2beA2DPejjJrv/qlJ2IzU3mfck4EL0sHIgqH6gwJsd53G3AG68CW4A3zKmwBoG2FLn4LmkuueDvdtxNYYW4f3URFTpnaKd53h2VD+rw28gahqiH0YtALwssa8Ah0DP+ROABSpoqlTXElW1AwlM9AC4L7Rn7jKWyR4LKkCPjmSfPvB4FvwJM5rF/4VYt9t/gRAq2IlVWitSErO2Bo9oM/KUaQ1h3KI04Y2YurMVpFeBJV/75Kv/9+By4c3fPmff54Gs3V/4LTu8EXQAAKgtHiaNXxbvScYhftsiecn5+KSDEO9z6F1qgNRlnx04YRbS08oWXMfr2X/E5zfmJ5C7RQJ4B2XU43/sGfrSnwlEO/sv0Dwc8OwP/Kvnd+4ax8OBuYWl3MAnP+qIQRAeYuoEcDLGBcgU+HHw3sjF6nU4SW0uopBOy55NnGDdwB+KTpgMPJ5YwiAAuNoEcDrcC/rdnQL5LTJnUZCvcwL04jeKo/w8kWHexM33A7wBbc1vwfN/4FBBECZSZQI4GXikb1lFCm/1bGJRoPUeAOuebVyw+wA/No8X4GCEa4hw1CVT4UAnlHFH7tVeD+J0JhEXCBnutuWPwWhaNc7YbOnwGBMQH/4x70DVOmEdwB+pTtvQl0lrhhHANQ4mgYBPBMLXHqHh/Z5+K8WuHw8w+WjLsG+cY/SvV3zzo54jPycioS020rNfp78e3493T6FZNiPjEQGBQLMwR/sn7zwXbyIId2fdG1x/qSqsEtVo70eI6+Fpp8O/rD/wJVZoB3gMrfV/h8kw/eGEgAdqtBNAE+nQffBrqzb8tD98dEuRkCoWsU8fLj6JnKH8B0oChsu2sYtRxPthIwRJ5DB8NHb8g1/BnSx09dDdiOXM2B3g+Aj+PYQg6Hpx4O/6hy+SJ/nH36dfI5DLUleQYYjrIwqAcDzWb/uRKTufzkM8uqG44vYLCC3BX/iUG4ByN0W+y3YYcx4AqAZnXoI4Gmx695RpnX/y25/f2X3v8yFcnxcmh4fI7EwlsE3LmL9O/jl6H4E7UZNyAwIHKWdAJ4Bgcu7/6dtgKpdLMf+kFOvBF/QNpU8O+gmSQfIh3+4lWrpOgN4xyP+A5kD/umhGgngGcATAlzRJsE+YZdRHje2Xx+KrziQrGhZeoI/sG1gvf7GzxtzB+osfA+ZBcXtNVTsANEu/9uyB/lGxcMx0QPxXoGFua7nkUISO0A9bAjepdjY9fEfjnYASI5LyETIC9FAAE9LoFvP2taYBYOTynBHBreX+vz2623xssE+oCUwHm90IWv+ys8S+C/IMHkBmQppgwepNRB7mmuQbLSBWxZhhOzAVUS+gGXwD1lykKS9c9cffr6ADyHD5DlkNoQPG6eqG7SXNzCX/IVRQuo2egCwSeFEzM/40ukkOwfw8wb+n/sm9PC/vIfMiF4diQtJCeAd6def+MNzZbabPghvYXBBLe43vLVL2QjU9Q9+/VxB18QdZFYU1720ZToBAbycdmgOdgdpXUxi3PP0GTzCRtLgwUf44YKyHdDp4Fe7/2fQNfEHMjciq6b2mx8rl07S4P2lNZgrZYJ3SbIOzKjLw70+OozoEuJmetsnfwF48IebJeaqp2viwd82IAsBjssFSg3CusqHOpdvgePRgW7jcCCjfH3y198+f2fnj39c/eXLwwfuu1liuv/GyxDwJthPeomVCABXGQkDPpkLxAXOhAvTJgPpRp9Bas2GJl+hRv4/oe3A+SOn1bvkBDrJ/sNK+kdzJeKLmL+Xn3kkrpiDz2yi6l8B4OQ5auTfAe0ADk4xOb/fhd5Cn1iKAGghuTsGvesW8VkkU0o+oN21B519y2IV24+6XugHoR3gGz5r9zZ4EL1pLQLEqzqHPR/zyAa4p0ShHGlp9GePD38ZuI7jxyiUi/0Q2gE4GYM/BQ+iH1mLAB1k4bvdmLEqN/cQWVHniKCo9Udk/nfQDCQdVXcOA++CfK7iJ8BGVT9biwAD6NTq0gI4O3ysypsYaA7gUqtrg0eRyEfN5K2lf+QHNwvJ5TB1CaEZUv4U6ADNATy6OX8AGiFOW4wALrF9rhjIfmIbbIsarPYqBvkDHRyyc2z7QDPUcasR4AZpgjBtYJKIAlUOcx40CnJIEP4T9kj9YDUCRMJ6iGY+8Ui4ppnaYQ67hOO4qIP9g/gr6JM+gSyHmYSuW8qAi9OotAI8OIu7ZQs+/vN/rOU/7G2CotyomBcwKaXDGE/7Plk0kjJuurtjH6uFdZb+aaBLAddoJGpYCWtiPttZ/e103gDdOWMeymDsEz7g8ApIs+gbwDXC3w3rjNh31moY6rbbffyJQv7JVP5bYL8IjsFIFJFswBawsYBejeLzXpVC2W8BP7uHoT2Z/zUrEsDXLlEwytOwPqjzBD7G3x2eobkP/wtLp/AlB9CnjHqvel7ABP2On8tsxmhM1NACTaNdcQ/MexIYxK5t1HEgKZhngULK2ItRxyhWE87ABKS1hmsa7h24agi7yu079jnAaNR9S6xJADSTOIyXDp7FzDdL43j/AKuGsOsdewXMTTGuPphupGIUMv4Ik+lwVQfHB2gc8EewaojT0cTGLvsRJh69yaobAArH1QEcbWMwWwouabVW64i/H4R3AOdvLOR/fRcmO+UOsizacBHix+jPlbkb19QgTfOYO4GggAccYFC7/eWfMNHor+ywLgHCcYkf9gW0p7IlMiCbex9P1/sg9XO5DZOcwoRs/LAWmyVyivJMI3AT5etpVnzeAdaQczidb1OW/xouL3XX11YmQCE2cTA/iupEHVimzdIz7JKDTngHcO76nKr8n0Kn/weznUeWRhVWMeODKE6zCd/crLeuga86cHUEmw5TlP+/uMx054m/rE0ATA/pLqxeT++wacfO0kvn0BcgzTz42zf0gsTPY+vSMPY9ccAcfEWhhF6U5ojBJ6Qu0zv2D7twtYQdr9BSzr+waamGFghmfg6UWqpoTNBbplxNfoTu4XdiS8c671LJ2P7rnMO7ItSjP7vuW58ASK4N7RkK58whMuPPoiD/907PBKHuV8FX+odfst/pxO0AVj8BPkSQXFm5UQE6R4+UayXRTMNid/muR4qg6zH9ml4z7YbbDs/Bu/9c/KsnEABtlSsb0neorrFT5dg1fjEV+Y/jdwCH8yd9R8Gdu+DBH140XkM9A/3lGNDSpv0xjUiUrUmzlJL856AL+mMO3D2vXf77Fzzjjt22gLd7iP5RoXwn6maNm4BNoXh1Jy35Xz4BmeiecOCixk3A9tU3TjAE9NGfD1CPQW6BrKbsW7Qc1qOmKdSkouey23AXLhv1WHXXtBzWP7/nwJDq4f+7aOs5BEBZCgXE8juLVY64XqmnZVkgRfm/hQvHPVHdrk/VWuw3/OrSFAKKO2j6AfUkHFOqIbcouVDFcI3L7EqUGkNV/jchP52r7pr+p+Y+8PM597hv79jDV75EPQvKxYVXp5I67lPKlYsS1lGW/zRkCXIvILOT1HH/+mmZyqSPGPZnD9M/Cq5XVlpof59g5ZN/arPySHYf2vL/fgl4B3hc4O5eufq78sl/50VsJcInHHBcRT0OxZUk5WQbkvbKRY0HhQ0nqkrLIPfg69tOzAPr+vemW2/JnQYO//iJfH/iRxz4EfVA+E8grCk8LWYAUFKyMDcshLRnUTIL+V874ZBrMdjdf/bezbeAgj5Lvvzq3DdOpf7EDwf5H+qRiChSUVq8b3zJ2jODB+T1ul5VnVE7IrtVxXeT2ch//55ci0HXe4HT6fzpwgdffHX8rbf/+c4fH+28c+3SvieticFeBG4DfoF6KKZQ60Mth4IFrOTfcRE+sLnfCh8xwOnZkd7hBCsOeL1QHN+iHou0Zvb6z69jJ/+SS/jWUu6WAQfUkd6FHvgT4K5fUA9GQA5r/c8eylL+Jb8qXN88OtF7XxcxG8CTr+/bgHo20tnqf/ccxvLfkW8x57oDuP0dLjfhGQHoPHEA9XQMLmCo//hC5vL/2UTSY8grvs+76APwWcevS1DPx7oyVuq3r+Uh/4F7TrI2U1DzP/mvfIGeCqwqYqP/1XV85F/ynsJLAHjMSXrTNf2JnhIEt7cw0P/kxdx+wDv7CDvNQSZD3De+fw09PQiaRF3/U3nKf/+KcqthKJdA5htvoqcKtk0JVNVfcYjzDzje5CRvPO+Usf4+/LP/dfS0wT+Envpbq/jLf+A0sfodSm+Bfd+ipxG5lOyCBQMLDZH/y4symz7ufAj9Tx8sQU8nbFU1FEy/Mf6G/YA/Tsgf7wjOh45dty6jpxfhbXv0qX98+1wj5X/5/EEVuwDwt6Y3v0ZPN2zD4u2a1T/hTKbR8v/t6gWHml3APff7q5eRADrUqck2mFC+1ByB05c/bVL5Cnjwj1dO//mXUP4jy5BP/1CVVt+c6ADzyP/71St3CawCLlRwfHJ8idC7K9JeGKLi1t/mazb5d3z0iRNnC/LaAvaff01o3BtHspJeVVZ+Tfr1AHPK/9pHt26D50E3i8DBm++IZx+P4j5Th2ALS00YnrR5o7nl//qdN/cfxJ35T3xy66vXhY6VETC0qra8ormocuEiSSrb3ZwYEjN169KjlpF/yYY/7pzef/HeiYNNTkfT7YsXzt369Me3dbf+/P/wmao/+swjEAAAAABJRU5ErkJggg==;" vertex="1" parent="1">
          <mxGeometry x="284" y="536" width="56" height="56" as="geometry" />
        </mxCell>
        <mxCell id="qPDrxui3yycS4Ta56Oi9-34" value="" style="endArrow=classic;html=1;rounded=0;edgeStyle=orthogonalEdgeStyle;exitX=0.517;exitY=1.1;exitDx=0;exitDy=0;exitPerimeter=0;" edge="1" parent="1">
          <mxGeometry width="50" height="50" relative="1" as="geometry">
            <mxPoint x="110" y="299.5" as="sourcePoint" />
            <mxPoint x="257" y="410" as="targetPoint" />
            <Array as="points">
              <mxPoint x="110" y="410" />
              <mxPoint x="257" y="410" />
            </Array>
          </mxGeometry>
        </mxCell>
        <mxCell id="qPDrxui3yycS4Ta56Oi9-35" value="Infra code" style="text;html=1;align=center;verticalAlign=middle;resizable=0;points=[];autosize=1;strokeColor=none;fillColor=none;" vertex="1" parent="1">
          <mxGeometry x="265" y="430" width="80" height="30" as="geometry" />
        </mxCell>
        <mxCell id="qPDrxui3yycS4Ta56Oi9-36" value="Commit" style="text;html=1;align=center;verticalAlign=middle;resizable=0;points=[];autosize=1;strokeColor=none;fillColor=none;" vertex="1" parent="1">
          <mxGeometry x="160" y="378" width="60" height="30" as="geometry" />
        </mxCell>
        <mxCell id="qPDrxui3yycS4Ta56Oi9-37" value="" style="endArrow=classic;html=1;rounded=0;" edge="1" parent="1">
          <mxGeometry width="50" height="50" relative="1" as="geometry">
            <mxPoint x="304.5" y="460" as="sourcePoint" />
            <mxPoint x="305" y="520" as="targetPoint" />
          </mxGeometry>
        </mxCell>
        <mxCell id="qPDrxui3yycS4Ta56Oi9-38" value="GitHub&lt;div&gt;Actions&lt;/div&gt;" style="text;html=1;align=center;verticalAlign=middle;resizable=0;points=[];autosize=1;strokeColor=none;fillColor=none;" vertex="1" parent="1">
          <mxGeometry x="282" y="600" width="60" height="40" as="geometry" />
        </mxCell>
        <mxCell id="qPDrxui3yycS4Ta56Oi9-39" value="Trigger" style="text;html=1;align=center;verticalAlign=middle;resizable=0;points=[];autosize=1;strokeColor=none;fillColor=none;" vertex="1" parent="1">
          <mxGeometry x="250" y="470" width="60" height="30" as="geometry" />
        </mxCell>
        <mxCell id="qPDrxui3yycS4Ta56Oi9-40" value="" style="endArrow=classic;html=1;rounded=0;" edge="1" parent="1">
          <mxGeometry width="50" height="50" relative="1" as="geometry">
            <mxPoint x="345" y="563.5" as="sourcePoint" />
            <mxPoint x="450" y="564" as="targetPoint" />
          </mxGeometry>
        </mxCell>
        <mxCell id="qPDrxui3yycS4Ta56Oi9-41" value="Update infra" style="text;html=1;align=center;verticalAlign=middle;resizable=0;points=[];autosize=1;strokeColor=none;fillColor=none;" vertex="1" parent="1">
          <mxGeometry x="345" y="536" width="90" height="30" as="geometry" />
        </mxCell>
      </root>
    </mxGraphModel>
  </diagram>
</mxfile>
